<svg xmlns="http://www.w3.org/2000/svg" xmlns:xlink="http://www.w3.org/1999/xlink" width="410.2" height="391" viewBox="0 0 410.2 391">
  <defs>
    <filter id="Path_37861" x="37.556" y="0" width="372.644" height="257.118" filterUnits="userSpaceOnUse">
      <feOffset dx="5.584" dy="4.653" input="SourceAlpha"/>
      <feGaussianBlur result="blur"/>
      <feFlood flood-color="#676a6b" flood-opacity="0.251"/>
      <feComposite operator="in" in2="blur"/>
      <feComposite in="SourceGraphic"/>
    </filter>
    <filter id="Path_37862" x="0" y="49.251" width="122.625" height="90.526" filterUnits="userSpaceOnUse">
      <feOffset dx="6" dy="5" input="SourceAlpha"/>
      <feGaussianBlur result="blur-2"/>
      <feFlood flood-color="#676a6b" flood-opacity="0.251"/>
      <feComposite operator="in" in2="blur-2"/>
      <feComposite in="SourceGraphic"/>
    </filter>
    <filter id="Rectangle_1364" x="58.89" y="322.531" width="336.144" height="68.469" filterUnits="userSpaceOnUse">
      <feOffset dx="6" dy="5" input="SourceAlpha"/>
      <feGaussianBlur result="blur-3"/>
      <feFlood flood-color="#676a6b" flood-opacity="0.251"/>
      <feComposite operator="in" in2="blur-3"/>
      <feComposite in="SourceGraphic"/>
    </filter>
  </defs>
  <g id="Group_35826" data-name="Group 35826" transform="translate(-56.804 -73.025)">
    <g transform="matrix(1, 0, 0, 1, 56.8, 73.03)" filter="url(#Path_37861)">
      <path id="Path_37861-2" data-name="Path 37861" d="M443.173,73.025H102.286c-7.2,0-13.086,4.95-13.086,11V283.047c0,6.05,5.889,11,13.086,11H363.35c2.9,8.794,10.832,19.3-12.945,31.443,43.479-4.973,51.131-19.943,63.107-31.443h29.662c7.2,0,13.086-4.95,13.086-11V84.025C456.259,77.975,450.37,73.025,443.173,73.025Z" transform="translate(-51.64 -73.03)" fill="#fff"/>
    </g>
    <g id="Group_35787" data-name="Group 35787" transform="translate(56.802 122.281)">
      <g transform="matrix(1, 0, 0, 1, 0, -49.26)" filter="url(#Path_37862)">
        <path id="Path_37862-2" data-name="Path 37862" d="M61.618,115.515H168.611c2.649,0,4.816,1.5,4.816,3.34v60.433c0,1.837-2.167,3.34-4.816,3.34H110.134c-1.065,2.671,6.7,14.281,15.449,17.968-25.5,3.478-36.377-14.476-40.785-17.968H61.618c-2.648,0-4.816-1.5-4.816-3.34V118.855C56.8,117.019,58.97,115.515,61.618,115.515Z" transform="translate(-56.8 -66.26)" fill="#f9cd53"/>
      </g>
      <g id="Group_35786" data-name="Group 35786" transform="translate(20.637 26.316)">
        <circle id="Ellipse_250" data-name="Ellipse 250" cx="9.274" cy="9.274" r="9.274" transform="translate(56.803 0)" fill="#fff"/>
        <circle id="Ellipse_251" data-name="Ellipse 251" cx="9.274" cy="9.274" r="9.274" transform="translate(27.822 0)" fill="#fff"/>
        <circle id="Ellipse_252" data-name="Ellipse 252" cx="9.274" cy="9.274" r="9.274" transform="translate(0 0)" fill="#fff"/>
      </g>
    </g>
    <g id="Group_35810" data-name="Group 35810" transform="translate(151.228 100.68)">
      <g id="Group_35809" data-name="Group 35809">
        <g id="Group_35789" data-name="Group 35789" transform="translate(0 182.14)">
          <path id="Path_37863" data-name="Path 37863" d="M241.368,260.5s-63.52,16.139-70.205,25.747S138.257,365.7,138.257,365.7H397.332s-35.207-76.6-41.976-83.657S290.093,260.5,290.093,260.5Z" transform="translate(-138.257 -252.965)" fill="#f9cd53"/>
          <g id="Group_35788" data-name="Group 35788" transform="translate(49.681 70.278)">
            <path id="Path_37864" data-name="Path 37864" d="M313.933,318.975s4.851,24.614,6.042,37.415h11.168C326.642,343.513,313.933,318.975,313.933,318.975Z" transform="translate(-159.962 -313.931)" fill="#f4b20c"/>
            <path id="Path_37865" data-name="Path 37865" d="M186.267,314.624s-2.754,28.879-5.154,42.459h13.176C191.121,342.929,186.267,314.624,186.267,314.624Z" transform="translate(-181.113 -314.624)" fill="#f4b20c"/>
          </g>
          <path id="Path_37866" data-name="Path 37866" d="M230.285,255.449l-22.432,28.824h23.569l-8.915,20.365L263.386,336.6l34.64-37.174L283.673,281.14l22.691-1.831L280.259,254Z" transform="translate(-127.174 -254)" fill="#f4b20c"/>
          <rect id="Rectangle_1363" data-name="Rectangle 1363" width="45.211" height="10.047" transform="translate(68.003 78.056)" fill="#fff"/>
        </g>
        <g id="Group_35793" data-name="Group 35793" transform="translate(38.309 6.452)">
          <g id="Group_35790" data-name="Group 35790" transform="translate(146.227 88.427)">
            <ellipse id="Ellipse_253" data-name="Ellipse 253" cx="12.955" cy="16.47" rx="12.955" ry="16.47" transform="translate(0 0)" fill="#efbb97"/>
            <path id="Path_37867" data-name="Path 37867" d="M303.091,190.092c2.059-4.611,7.28-8.76,11.446-3.62,3.3,4.077,2.985,12.652-.672,16.417a6.492,6.492,0,0,1-11.283-3.288c-.456-2.315-.212-5.137,2.176-6.237a3.732,3.732,0,0,1,5.308,2.847c.308,1.566-1.985,2.812-2.76,1.164q-1.913-.259-1.409,1.089a4.248,4.248,0,0,0,.559,1.922,3.152,3.152,0,0,0,4.431.466c2.068-1.459,2.439-4.223,2.5-6.562.048-1.9-.008-4.926-1.548-6.319-2.907-2.631-5.389,1.091-6.957,3.168a1.037,1.037,0,1,1-1.79-1.047Z" transform="translate(-296.655 -177.871)" fill="#d69c77"/>
          </g>
          <path id="Path_37868" data-name="Path 37868" d="M174.432,189.683c-.505-1.26-12.1-31.22,12.827-62.325,25.1-31.317,95.324-29.219,120.572-14.922,25.186,14.259,27.937,67.939,28.041,70.217l-5.79.267c-.024-.525-2.7-52.755-25.106-65.439-23.187-13.128-90.219-15.164-113.2,13.5-9.535,11.9-14.453,25.008-14.618,38.962a50.987,50.987,0,0,0,2.65,17.583Z" transform="translate(-171.303 -102.446)" fill="#f4b20c"/>
          <g id="Group_35792" data-name="Group 35792" transform="translate(150.472 76.913)">
            <g id="Group_35791" data-name="Group 35791">
              <path id="Path_37869" data-name="Path 37869" d="M301.105,188.062c.056,10.606,5.445,19.176,12.036,19.141s11.892-8.661,11.836-19.267-5.445-19.176-12.038-19.143S301.049,177.455,301.105,188.062Z" transform="translate(-301.105 -168.794)" fill="#0e6e9e"/>
              <path id="Path_37870" data-name="Path 37870" d="M304.089,188.394c.056,10.606,5.445,19.176,12.036,19.143s11.892-8.661,11.836-19.268-5.445-19.176-12.036-19.141S304.033,177.788,304.089,188.394Z" transform="translate(-300.629 -168.741)" fill="#1bbced"/>
            </g>
            <path id="Path_37871" data-name="Path 37871" d="M318.368,187.255c.034,6.353,1.892,11.492,4.151,11.48s4.063-5.17,4.031-11.523-1.892-11.49-4.151-11.479S318.334,180.9,318.368,187.255Z" transform="translate(-298.356 -167.689)" fill="#0a5472"/>
          </g>
        </g>
        <g id="Group_35805" data-name="Group 35805" transform="translate(41.294)">
          <g id="Group_35794" data-name="Group 35794" transform="translate(62.953 168.229)">
            <path id="Path_37872" data-name="Path 37872" d="M228.184,242v28.04l29.8,35.719s19.743-32.073,19.02-36.806S277,242,277,242Z" transform="translate(-228.184 -242)" fill="#efbb97"/>
            <path id="Path_37873" data-name="Path 37873" d="M276.5,258.61V242H228.184v12.329C242.874,261.619,260.1,262.388,276.5,258.61Z" transform="translate(-228.184 -242)" fill="#d69c77"/>
          </g>
          <g id="Group_35803" data-name="Group 35803">
            <path id="Path_37874" data-name="Path 37874" d="M196.212,152.715S194.37,231.6,199.9,242.749s33.164,29.368,60.432,29.368S318.18,251.25,321.5,242.363s0-102.4,0-102.4-12.372-27.05-66.7-27.05S196.212,152.715,196.212,152.715Z" transform="translate(-170.369 -94.328)" fill="#efbb97"/>
            <g id="Group_35796" data-name="Group 35796" transform="translate(3.134 89.224)">
              <g id="Group_35795" data-name="Group 35795">
                <ellipse id="Ellipse_254" data-name="Ellipse 254" cx="14.114" cy="17.944" rx="14.114" ry="17.944" transform="matrix(0.995, -0.095, 0.095, 0.995, 0, 2.685)" fill="#efbb97"/>
                <path id="Path_37875" data-name="Path 37875" d="M197.544,186.685c-2.711-4.788-8.8-8.745-12.79-2.739-3.161,4.765-1.925,14.032,2.431,17.735a7.073,7.073,0,0,0,11.9-4.736c.254-2.557-.3-5.592-3.006-6.538a4.066,4.066,0,0,0-5.462,3.638c-.173,1.731,2.444,2.845,3.114.976q2.048-.478,1.64,1.035a4.622,4.622,0,0,1-.406,2.142,3.434,3.434,0,0,1-4.758.964c-2.394-1.369-3.082-4.327-3.388-6.858-.249-2.058-.5-5.343,1.024-7.015,2.88-3.154,5.957.625,7.871,2.716a1.131,1.131,0,0,0,1.834-1.322Z" transform="translate(-175.563 -172.725)" fill="#d69c77"/>
              </g>
            </g>
            <g id="Group_35797" data-name="Group 35797">
              <path id="Path_37876" data-name="Path 37876" d="M293.518,158.177s8.648,36.381,9.685,32.147,4.921-7.127,4.921-7.127V153.25Z" transform="translate(-154.826 -87.904)" fill="#683804"/>
              <path id="Path_37877" data-name="Path 37877" d="M200.587,193.337c5.771,7.758,15.186-51.4,15.186-51.4s6.666,25.5,34.2,23.185c11.54-2.608,1.3-15.36,1.3-15.36s14.511,18.7,52.311,22.018,55.934-36.987,53.035-46.652-28.732-.1-44.051-6.086-27.424-22.164-56.507-22.164-41.739,11.73-41.739,11.73-.58-11.592-8.4-11.592-5.333,15.94-5.333,15.94-6.55-11.013-12.056-8.694,3.98,15.94,3.98,15.94-14.993,5.8-18.18,22.026,11.547,47.05,11.547,47.05S194.816,185.58,200.587,193.337Z" transform="translate(-173.878 -96.881)" fill="#683804"/>
            </g>
            <g id="Group_35802" data-name="Group 35802" transform="translate(39.385 75.609)">
              <g id="Group_35798" data-name="Group 35798" transform="translate(6.384 18.232)">
                <path id="Path_37878" data-name="Path 37878" d="M239.029,196.151c-.888-8.02-3.357-15.938-11.358-16.611a11.947,11.947,0,0,0-1.878,0,12.175,12.175,0,0,0-1.876.114c-7.947,1.149-9.938,9.2-10.345,17.26a40.851,40.851,0,0,0-.037,7.917c.044,1.935.1,3.708.073,5.183-.049,3.2,4.972,3.047,4.991-.148.025-4.258-1.128-12.487.218-18.577a16.159,16.159,0,0,1,2.016-4.768,6.687,6.687,0,0,1,2.74-2.186,5.308,5.308,0,0,1,4.722-.141,6.683,6.683,0,0,1,2.867,2.019,16.191,16.191,0,0,1,2.3,4.637c1.708,6,1.048,14.283,1.327,18.532.21,3.188,5.232,3.044,4.991-.15-.11-1.471-.165-3.245-.237-5.178A40.844,40.844,0,0,0,239.029,196.151Z" transform="translate(-213.361 -177.565)" fill="#1d1d1b"/>
                <path id="Path_37879" data-name="Path 37879" d="M294.9,194.48c-.887-8.021-3.357-15.938-11.358-16.612a31.376,31.376,0,0,0-3.754.112c-7.947,1.15-9.938,9.2-10.345,17.261a40.854,40.854,0,0,0-.037,7.916c.044,1.934.1,3.707.074,5.183-.05,3.2,4.971,3.045,4.989-.15.026-4.258-1.128-12.486.218-18.576a16.177,16.177,0,0,1,2.016-4.768,6.687,6.687,0,0,1,2.74-2.186,5.3,5.3,0,0,1,4.722-.141,6.681,6.681,0,0,1,2.867,2.018,16.182,16.182,0,0,1,2.3,4.638c1.708,6,1.048,14.282,1.328,18.531.21,3.189,5.231,3.045,4.989-.148-.11-1.472-.165-3.246-.237-5.18a40.834,40.834,0,0,0-.512-7.9Z" transform="translate(-204.463 -177.831)" fill="#1d1d1b"/>
              </g>
              <path id="Path_37880" data-name="Path 37880" d="M250.117,182.445c1.383,6.072,3.215,11.742,7.016,16.683,1.82,2.366,6.345,4.993,6.608,8.153.253,3.04-3.477,5.451-5.542,6.5-2.753,1.392-5.577,1.551-8.263-.392-1.6-1.157-.721-4.012,1.223-3.363,1.784.6,8.261.643,8.66-2.285.122-.9-5.411-5.959-7.016-8.694a31.129,31.129,0,0,1-4.528-16.391.93.93,0,0,1,1.843-.208Z" transform="translate(-201.418 -158.986)" fill="#d69c77"/>
              <g id="Group_35799" data-name="Group 35799">
                <path id="Path_37881" data-name="Path 37881" d="M212.915,176.8c5.387-4,11.26-6.513,18.413-5.47,4.193.611,8.083-4.023,4.29-6.677-4.726-3.308-10.686-3.215-16.073-.791-4.726,2.128-10.259,6.139-11.59,10.67-.758,2.583,2.862,3.826,4.959,2.269Z" transform="translate(-207.853 -162.104)" fill="#592e04"/>
                <path id="Path_37882" data-name="Path 37882" d="M295.22,175.859c-5.214-3.409-10.794-5.41-17.364-4.047-3.851.8-7.714-3.278-4.346-5.949,4.2-3.327,9.723-3.57,14.848-1.623,4.5,1.71,9.847,5.118,11.33,9.241.846,2.352-2.439,3.7-4.468,2.378Z" transform="translate(-197.603 -161.959)" fill="#592e04"/>
              </g>
              <g id="Group_35801" data-name="Group 35801" transform="translate(37.578 64.091)">
                <g id="Group_35800" data-name="Group 35800">
                  <path id="Path_37883" data-name="Path 37883" d="M240.663,218.591c1.862-1.453,10.446,2.087,15.883,1.764s11.927-3.969,15.256-2.7-1.388,22.885-14.884,23.288S238.8,220.043,240.663,218.591Z" transform="translate(-240.269 -217.391)" fill="#9b1515"/>
                  <path id="Path_37884" data-name="Path 37884" d="M243.6,230.78c2.708,4.63,6.9,8.576,12.782,8.4,5.247-.158,9.161-3.524,11.8-7.652C260.508,228.022,251.693,227.269,243.6,230.78Z" transform="translate(-239.738 -215.623)" fill="#ff8a8a"/>
                </g>
                <path id="Path_37885" data-name="Path 37885" d="M247.642,241.019c3.329,3.632,9.432,4.056,13.875,2.7,1.406-.428.718-2.664-.672-2.182-4.7,1.631-8.3.562-12.727-1.178a.41.41,0,0,0-.475.655Z" transform="translate(-239.115 -213.738)" fill="#d69c77"/>
              </g>
            </g>
          </g>
          <g id="Group_35804" data-name="Group 35804" transform="translate(40.254 135)">
            <ellipse id="Ellipse_255" data-name="Ellipse 255" cx="15.195" cy="8.324" rx="15.195" ry="8.324" transform="translate(75.351 0)" fill="#e5a088" opacity="0.6"/>
            <ellipse id="Ellipse_256" data-name="Ellipse 256" cx="15.195" cy="8.324" rx="15.195" ry="8.324" transform="translate(0 0)" fill="#e5a088" opacity="0.6"/>
          </g>
        </g>
        <g id="Group_35808" data-name="Group 35808" transform="translate(29.69 6.452)">
          <path id="Path_37886" data-name="Path 37886" d="M174.432,189.683c-.505-1.26-12.1-31.22,12.827-62.325,25.1-31.317,95.324-29.219,120.572-14.922a29.666,29.666,0,0,1,4.15,2.853,54.874,54.874,0,0,1,4.145,3.857s-1.215-.867-5.3-1.06c-3.38-.16-4.759,0-4.966-.16s-.534-.246-.889-.446c-23.187-13.128-90.219-15.164-113.2,13.5-9.535,11.9-14.453,25.008-14.618,38.962a50.987,50.987,0,0,0,2.65,17.583Z" transform="translate(-162.684 -102.446)" fill="#f4b20c"/>
          <g id="Group_35807" data-name="Group 35807" transform="translate(0 81.952)">
            <g id="Group_35806" data-name="Group 35806">
              <ellipse id="Ellipse_257" data-name="Ellipse 257" cx="14.168" cy="19.205" rx="14.168" ry="19.205" transform="matrix(0.991, -0.134, 0.134, 0.991, 4.013, 3.8)" fill="#0e6e9e"/>
              <ellipse id="Ellipse_258" data-name="Ellipse 258" cx="14.168" cy="19.205" rx="14.168" ry="19.205" transform="matrix(0.991, -0.134, 0.134, 0.991, 0, 4.75)" fill="#1bbced"/>
            </g>
            <path id="Path_37887" data-name="Path 37887" d="M174.872,194.129c.852,6.294-.612,11.689-3.27,12.048s-5.5-4.451-6.354-10.746.612-11.689,3.269-12.048S174.02,187.834,174.872,194.129Z" transform="translate(-163.687 -171.512)" fill="#0a5472"/>
          </g>
          <path id="Path_37888" data-name="Path 37888" d="M237.878,237.509c-7.985,2.773-14.681,4.558-23.223,2.865-7.452-1.479-16.209-4.236-20.728-10.759-6.108-8.814-5.469-19.114-6.071-29.206-.185-3.1-4.35-3.444-5.68-.984-2.525,4.666-1.4,11.718-.522,16.7,1.271,7.239,3.777,14.536,8.782,20.063,6.028,6.656,16.206,9.531,24.855,10.6,8.5,1.049,18.169-.344,24.676-6.309,1.468-1.346-.474-3.526-2.089-2.965Z" transform="translate(-161.199 -87.262)" fill="#f4b20c"/>
          <path id="Path_37889" data-name="Path 37889" d="M236.184,237.37l-4.5,2.306a5.135,5.135,0,0,1-6.892-2.221h0a5.135,5.135,0,0,1,2.221-6.892l4.5-2.306a5.135,5.135,0,0,1,6.892,2.221h0a5.135,5.135,0,0,1-2.221,6.892Z" transform="translate(-154.255 -82.501)" fill="#0a5472"/>
        </g>
      </g>
    </g>
    <g id="Group_35811" data-name="Group 35811" transform="translate(115.694 395.556)">
      <g transform="matrix(1, 0, 0, 1, -58.89, -322.53)" filter="url(#Rectangle_1364)">
        <rect id="Rectangle_1364-2" data-name="Rectangle 1364" width="330.144" height="63.469" transform="translate(58.89 322.53)" fill="#1bbced"/>
      </g>
      <text id="ABOUT_US_" data-name="ABOUT US " transform="translate(38.571 45.234)" fill="#fff" font-size="45" font-family="SegoeUIBlack, Segoe UI"><tspan x="0" y="0">ABOUT US</tspan></text>
    </g>
    <g id="Group_35825" data-name="Group 35825" transform="translate(397.102 92.312)">
      <g id="Group_35816" data-name="Group 35816">
        <g id="Group_35812" data-name="Group 35812" transform="translate(3.478 2.318)" opacity="0.38">
          <path id="Path_37890" data-name="Path 37890" d="M374.472,91.665a21.483,21.483,0,1,0,21.845,21.113,21.483,21.483,0,0,0-21.845-21.113Z" transform="translate(-353.355 -91.662)" fill="#d2e0e4"/>
          <path id="Path_37891" data-name="Path 37891" d="M373.727,112.1l-13.469-9.993,26.623-.453Z" transform="translate(-352.256 -90.071)" fill="#d2e0e4"/>
          <path id="Path_37892" data-name="Path 37892" d="M369.391,111.1l-10.61,8.962-.29-17.038Z" transform="translate(-352.537 -89.853)" fill="#d2e0e4"/>
          <path id="Path_37893" data-name="Path 37893" d="M370.851,111.142l2.893,2.2,2.983-2.384,10.635,8.558-26.917.458Z" transform="translate(-352.226 -88.59)" fill="#d2e0e4"/>
          <path id="Path_37894" data-name="Path 37894" d="M375.96,110.917l10.515-8.344.29,17.021Z" transform="translate(-349.756 -89.925)" fill="#d2e0e4"/>
        </g>
        <g id="Group_35815" data-name="Group 35815">
          <g id="Group_35814" data-name="Group 35814">
            <path id="Path_37895" data-name="Path 37895" d="M371.472,89.665a21.483,21.483,0,1,0,21.845,21.113,21.483,21.483,0,0,0-21.845-21.113Z" transform="translate(-350.355 -89.662)" fill="#f4b20c"/>
            <g id="Group_35813" data-name="Group 35813" transform="translate(5.954 11.587)">
              <path id="Path_37896" data-name="Path 37896" d="M370.727,110.1l-13.469-9.993,26.623-.453Z" transform="translate(-355.21 -99.658)" fill="#fff"/>
              <path id="Path_37897" data-name="Path 37897" d="M366.391,109.1l-10.61,8.962-.29-17.038Z" transform="translate(-355.491 -99.44)" fill="#fff"/>
              <path id="Path_37898" data-name="Path 37898" d="M367.851,109.142l2.893,2.2,2.983-2.384,10.635,8.558-26.917.458Z" transform="translate(-355.18 -98.177)" fill="#fff"/>
              <path id="Path_37899" data-name="Path 37899" d="M372.96,108.917l10.515-8.344.29,17.021Z" transform="translate(-352.709 -99.512)" fill="#fff"/>
            </g>
          </g>
        </g>
      </g>
      <g id="Group_35820" data-name="Group 35820" transform="translate(0 142.67)">
        <g id="Group_35817" data-name="Group 35817" transform="translate(3.478 2.318)" opacity="0.38">
          <path id="Path_37900" data-name="Path 37900" d="M373.547,214.736a20.541,20.541,0,1,0,20.886,20.189A20.541,20.541,0,0,0,373.547,214.736Z" transform="translate(-353.355 -214.733)" fill="#d2e0e4"/>
          <path id="Path_37901" data-name="Path 37901" d="M382.738,229.226a10.268,10.268,0,1,0-20.511,0,11.122,11.122,0,0,0,1.662,5.873h-.029l8.571,15.821,8.272-15.268a11.061,11.061,0,0,0,2.035-6.426Zm-10.257-4.987a4.993,4.993,0,1,1-4.745,4.987,4.879,4.879,0,0,1,4.745-4.987Z" transform="translate(-351.943 -214.142)" fill="#d2e0e4"/>
        </g>
        <g id="Group_35819" data-name="Group 35819">
          <g id="Group_35818" data-name="Group 35818">
            <path id="Path_37902" data-name="Path 37902" d="M370.547,212.736a20.541,20.541,0,1,0,20.886,20.189,20.541,20.541,0,0,0-20.886-20.189Z" transform="translate(-350.355 -212.733)" fill="#f4b20c"/>
            <path id="Path_37903" data-name="Path 37903" d="M379.738,227.226a10.268,10.268,0,1,0-20.511,0,11.122,11.122,0,0,0,1.662,5.873h-.029l8.571,15.821,8.272-15.268a11.061,11.061,0,0,0,2.035-6.426Zm-10.257-4.987a4.993,4.993,0,1,1-4.745,4.987,4.879,4.879,0,0,1,4.744-4.987Z" transform="translate(-348.943 -212.142)" fill="#fff"/>
          </g>
        </g>
      </g>
      <g id="Group_35824" data-name="Group 35824" transform="translate(0 72.811)">
        <g id="Group_35821" data-name="Group 35821" transform="translate(3.478 2.318)" opacity="0.38">
          <path id="Path_37904" data-name="Path 37904" d="M373.547,154.474a20.541,20.541,0,1,0,20.886,20.188,20.541,20.541,0,0,0-20.886-20.188Z" transform="translate(-353.355 -154.471)" fill="#d2e0e4"/>
          <path id="Path_37905" data-name="Path 37905" d="M377.1,180.238c.6-.418,6.936,4.964,7.126,5.648S382.7,187.8,382.7,187.8s-2.289,1.775-3.278,1.913c-.111.012-.223.017-.334.021-3.733.183-9.3-4.232-13.465-11.015s-5.585-13.751-3.729-17a13.4,13.4,0,0,1,5.743-2.832c.727,0,2.318,8.6,1.844,8.917s-2.717.4-3.329.574-.849,1.447-.487,2.037c0,0,7.424,12.686,8.989,12.471S376.5,180.656,377.1,180.238Z" transform="translate(-352.123 -153.768)" fill="#d2e0e4"/>
        </g>
        <g id="Group_35823" data-name="Group 35823">
          <g id="Group_35822" data-name="Group 35822">
            <path id="Path_37906" data-name="Path 37906" d="M370.547,152.474a20.541,20.541,0,1,0,20.886,20.188A20.541,20.541,0,0,0,370.547,152.474Z" transform="translate(-350.355 -152.471)" fill="#f4b20c"/>
            <path id="Path_37907" data-name="Path 37907" d="M374.1,178.238c.6-.418,6.936,4.964,7.126,5.648S379.7,185.8,379.7,185.8s-2.289,1.775-3.278,1.913c-.111.012-.223.017-.334.021-3.733.183-9.3-4.232-13.465-11.015s-5.585-13.751-3.729-17a13.4,13.4,0,0,1,5.743-2.832c.727,0,2.319,8.6,1.844,8.917s-2.717.4-3.329.574-.849,1.447-.487,2.037c0,0,7.424,12.686,8.989,12.471S373.5,178.656,374.1,178.238Z" transform="translate(-349.123 -151.768)" fill="#fff"/>
          </g>
        </g>
      </g>
    </g>
  </g>
</svg>
