<svg xmlns="http://www.w3.org/2000/svg" width="74.699" height="92.159" viewBox="0 0 74.699 92.159">
  <g id="anchor" transform="translate(-48.5 0)">
    <g id="Group_40" data-name="Group 40" transform="translate(81.03 5.401)">
      <g id="Group_39" data-name="Group 39" transform="translate(0)">
        <path id="Path_29" data-name="Path 29" d="M234.039,30a4.815,4.815,0,1,0,4.821,4.815A4.823,4.823,0,0,0,234.039,30Zm0,6.93a2.115,2.115,0,1,1,2.118-2.115A2.119,2.119,0,0,1,234.039,36.932Z" transform="translate(-229.218 -30.002)" fill="#d1d1d1"/>
      </g>
    </g>
    <g id="Group_42" data-name="Group 42" transform="translate(48.501 0)">
      <g id="Group_41" data-name="Group 41" transform="translate(0)">
        <path id="Path_30" data-name="Path 30" d="M122.17,51.186a2.714,2.714,0,0,0-2.451-.463l-12.145,3.639a2.7,2.7,0,0,0-.078,5.148l4.172,1.389A27.552,27.552,0,0,1,90.807,78.482V36.63H94.3a6.75,6.75,0,1,0,0-9.9H90.807V19.151a10.154,10.154,0,0,0,5.26-9.436,10.279,10.279,0,0,0-9.8-9.707A10.213,10.213,0,0,0,81.7,19.55a1.35,1.35,0,1,0,1.1-2.467,7.525,7.525,0,0,1-4.47-6.867,7.52,7.52,0,0,1,7.831-7.509,7.559,7.559,0,0,1,7.209,7.138,7.48,7.48,0,0,1-4.461,7.238,1.35,1.35,0,0,0-.8,1.233v9.764a1.351,1.351,0,0,0,1.352,1.35h5.407a1.353,1.353,0,0,0,1.007-.449,4.05,4.05,0,1,1,0,5.4,1.353,1.353,0,0,0-1.007-.449H89.455A1.351,1.351,0,0,0,88.1,35.28V80.055a1.351,1.351,0,0,0,1.52,1.339,30.243,30.243,0,0,0,25.051-20.946,1.35,1.35,0,0,0-.863-1.683l-5.461-1.818L120.5,53.3A34.7,34.7,0,0,1,93.106,85.366a16.16,16.16,0,0,0-7.255,3.587A16.162,16.162,0,0,0,78.6,85.366,34.693,34.693,0,0,1,51.2,53.309L63.35,56.948l-5.46,1.818a1.35,1.35,0,0,0-.863,1.683A30.243,30.243,0,0,0,82.078,81.395a1.351,1.351,0,0,0,1.52-1.339V35.28a1.351,1.351,0,0,0-1.352-1.35H76.839a1.353,1.353,0,0,0-1.007.449,4.05,4.05,0,1,1,0-5.4,1.353,1.353,0,0,0,1.007.449h5.407A1.351,1.351,0,0,0,83.6,28.08V23.716a1.352,1.352,0,0,0-2.7,0V26.73H77.4a6.75,6.75,0,1,0,0,9.9h3.491V78.482A27.551,27.551,0,0,1,60.033,60.9L64.2,59.509a2.7,2.7,0,0,0-.078-5.148L51.982,50.723a2.716,2.716,0,0,0-2.451.463A2.689,2.689,0,0,0,48.5,53.439,37.4,37.4,0,0,0,78.031,88.007a13.38,13.38,0,0,1,6.7,3.591l.167.167a1.353,1.353,0,0,0,1.912,0l.167-.167a13.379,13.379,0,0,1,6.7-3.591A37.4,37.4,0,0,0,123.2,53.439,2.688,2.688,0,0,0,122.17,51.186Z" transform="translate(-48.501 0)" fill="#d1d1d1"/>
      </g>
    </g>
  </g>
</svg>
