<svg xmlns="http://www.w3.org/2000/svg" width="25.4" height="19.994" viewBox="0 0 25.4 19.994">
  <g id="camera" transform="translate(-0.005 -0.001)">
    <g id="Group_35858" data-name="Group 35858">
      <g id="Group_35857" data-name="Group 35857">
        <path id="Path_37951" data-name="Path 37951" d="M24.565,47.916a2.732,2.732,0,0,0-2-.845h-4.01v-.048a2.169,2.169,0,0,0-.652-1.57,2.21,2.21,0,0,0-1.57-.652H9.082a2.227,2.227,0,0,0-2.246,2.222v.048H2.85a2.732,2.732,0,0,0-2,.845,2.872,2.872,0,0,0-.845,2V61.95a2.732,2.732,0,0,0,.845,2,2.872,2.872,0,0,0,2,.845H22.56a2.732,2.732,0,0,0,2-.845,2.872,2.872,0,0,0,.845-2V49.921A2.732,2.732,0,0,0,24.565,47.916ZM24.154,61.95H24.13a1.567,1.567,0,0,1-1.57,1.57H2.85a1.567,1.567,0,0,1-1.57-1.57V49.921a1.567,1.567,0,0,1,1.57-1.57H7.512a.649.649,0,0,0,.652-.652V47a.909.909,0,0,1,.942-.942h7.222A.909.909,0,0,1,17.27,47v.7a.649.649,0,0,0,.652.652h4.662a1.567,1.567,0,0,1,1.57,1.57Z" transform="translate(0 -44.8)"/>
        <path id="Path_37952" data-name="Path 37952" d="M117.942,130.8a5.938,5.938,0,1,0,4.2,1.739,5.938,5.938,0,0,0-4.2-1.739Zm3.285,9.251a4.665,4.665,0,0,1-6.57,0,4.618,4.618,0,0,1-1.353-3.285,4.72,4.72,0,0,1,1.353-3.285,4.618,4.618,0,0,1,3.285-1.353,4.72,4.72,0,0,1,3.285,1.353,4.618,4.618,0,0,1,1.353,3.285,4.52,4.52,0,0,1-1.353,3.285Z" transform="translate(-105.237 -125.607)"/>
        <circle id="Ellipse_273" data-name="Ellipse 273" cx="1.184" cy="1.184" r="1.184" transform="translate(20.121 5.169)"/>
      </g>
    </g>
  </g>
</svg>
