<svg xmlns="http://www.w3.org/2000/svg" width="20.262" height="20.578" viewBox="0 0 20.262 20.578">
  <g id="commodity" transform="translate(0.15 0.378)">
    <path id="Path_37990" data-name="Path 37990" d="M38.542,12.085A3.542,3.542,0,1,0,35,8.542,3.542,3.542,0,0,0,38.542,12.085Zm0-6.441a2.9,2.9,0,1,1-2.9,2.9,2.9,2.9,0,0,1,2.9-2.9Z" transform="translate(-24.052 -3.7)" stroke="#000" stroke-width="0.3"/>
    <path id="Path_37991" data-name="Path 37991" d="M43.966,12.22a.322.322,0,0,1-.322-.322H43a.965.965,0,0,0,.644.907v.7h.644v-.7a.963.963,0,0,0-.322-1.873.322.322,0,1,1,.322-.322h.644a.965.965,0,0,0-.644-.907V9h-.644v.7a.963.963,0,0,0,.322,1.873.322.322,0,0,1,0,.644Z" transform="translate(-29.475 -6.412)" stroke="#000" stroke-width="0.3"/>
    <path id="Path_37992" data-name="Path 37992" d="M19.355,8.711a4.83,4.83,0,1,0-7.73,0c-1.042.413-1.608.98-1.608,1.623v.484L7.24,6.564a.917.917,0,0,0-1.535,0L1.889,12.418A5.46,5.46,0,0,0,1,15.407v.078a5.466,5.466,0,0,0,9.576,3.61c.95.8,2.974,1.221,4.912,1.221,2.653,0,5.474-.79,5.474-2.254V10.334C20.965,9.694,20.4,9.124,19.355,8.711ZM15.491,1.64a4.186,4.186,0,1,1-4.184,4.186A4.186,4.186,0,0,1,15.491,1.64ZM12.071,9.234a4.824,4.824,0,0,0,6.839,0c.873.308,1.411.721,1.411,1.1,0,.76-2.066,1.608-4.83,1.608s-4.83-.85-4.83-1.608C10.66,9.955,11.2,9.542,12.071,9.234Zm-5.6,11.083a4.835,4.835,0,0,1-4.83-4.83v-.078a4.818,4.818,0,0,1,.784-2.639L6.246,6.916a.283.283,0,0,1,.457,0L10.017,12v6.067a1.133,1.133,0,0,0,.14.539,4.791,4.791,0,0,1-3.683,1.713Zm9.017-.644c-2.765,0-4.83-.85-4.83-1.608V16.585a8.793,8.793,0,0,0,4.83,1.155,8.8,8.8,0,0,0,4.83-1.155v1.477c0,.76-2.066,1.61-4.83,1.61Zm0-2.576c-2.765,0-4.83-.85-4.83-1.608V14.007a8.793,8.793,0,0,0,4.83,1.155,8.8,8.8,0,0,0,4.83-1.155v1.477c0,.762-2.066,1.613-4.83,1.613Zm0-2.576c-2.765,0-4.83-.85-4.83-1.608V11.433a8.793,8.793,0,0,0,4.83,1.155,8.8,8.8,0,0,0,4.83-1.155V12.91c0,.759-2.066,1.608-4.83,1.608Z" transform="translate(-1 -0.984)" stroke="#000" stroke-width="0.3"/>
    <path id="Path_37993" data-name="Path 37993" d="M5.914,41.888l-.612-.2a4.214,4.214,0,0,0-.165.7l.637.094a3.5,3.5,0,0,1,.14-.591Z" transform="translate(-3.806 -28.573)" stroke="#000" stroke-width="0.3"/>
    <path id="Path_37994" data-name="Path 37994" d="M5.644,46H5a4.191,4.191,0,0,0,4.186,4.186v-.644A3.547,3.547,0,0,1,5.644,46Z" transform="translate(-3.712 -31.497)" stroke="#000" stroke-width="0.3"/>
  </g>
</svg>
