<svg xmlns="http://www.w3.org/2000/svg" width="17.967" height="17.999" viewBox="0 0 17.967 17.999">
  <g id="compare" transform="translate(0.004)">
    <path id="Path_37925" data-name="Path 37925" d="M117.52,49.5h1.67V62.964h-1.67Z" transform="translate(-109.373 -46.753)"/>
    <path id="Path_37926" data-name="Path 37926" d="M117.809,50.741a.119.119,0,0,0,.119-.119v-2.5a.119.119,0,0,0-.119-.119h-1.67a.119.119,0,0,0-.119.119V61.583a.119.119,0,0,0,.119.119h1.67a.119.119,0,0,0,.119-.119V51.751a.119.119,0,1,0-.239,0v9.713h-1.431V48.239h1.431v2.383a.119.119,0,0,0,.12.119Z" transform="translate(-107.993 -45.373)"/>
    <path id="Path_37927" data-name="Path 37927" d="M33.639,28.536H17.585a.835.835,0,0,0,0,1.67H33.639a.835.835,0,1,0,0-1.67Z" transform="translate(-16.631 -27.459)"/>
    <path id="Path_37928" data-name="Path 37928" d="M32.258,27.037H20.29a.119.119,0,1,0,0,.239H32.258a.715.715,0,0,1,0,1.431H16.2a.715.715,0,1,1,0-1.431h3a.12.12,0,0,0,0-.239h-3a.955.955,0,0,0,0,1.909H32.258a.954.954,0,0,0,0-1.909Z" transform="translate(-15.25 -26.08)"/>
    <path id="Path_37929" data-name="Path 37929" d="M60.021,218.518H50.795a1.67,1.67,0,0,0-1.67,1.67H61.691A1.67,1.67,0,0,0,60.021,218.518Z" transform="translate(-46.427 -202.308)"/>
    <path id="Path_37930" data-name="Path 37930" d="M58.641,217.018H49.414a1.791,1.791,0,0,0-1.789,1.789.119.119,0,0,0,.119.119H60.311a.119.119,0,0,0,.119-.119,1.791,1.791,0,0,0-1.789-1.789Zm-10.772,1.67a1.552,1.552,0,0,1,1.546-1.431h9.226a1.552,1.552,0,0,1,1.546,1.431Z" transform="translate(-45.046 -200.927)"/>
    <path id="Path_37931" data-name="Path 37931" d="M17.16,141.128v.154a3.377,3.377,0,0,0,3.377,3.378h.308a3.377,3.377,0,0,0,3.377-3.378v-.154Z" transform="translate(-17.008 -131.082)"/>
    <path id="Path_37932" data-name="Path 37932" d="M22.843,139.627H15.779a.119.119,0,0,0-.119.119v.154a3.5,3.5,0,0,0,3.5,3.5h.308a3.5,3.5,0,0,0,3.5-3.5v-.154a.119.119,0,0,0-.125-.119Zm-.119.274a3.262,3.262,0,0,1-3.258,3.258h-.308A3.262,3.262,0,0,1,15.9,139.9v-.035h6.824Z" transform="translate(-15.627 -129.701)"/>
    <path id="Path_37933" data-name="Path 37933" d="M22.95,55.365l-3.492-7.3A.119.119,0,0,0,19.35,48a.117.117,0,0,0-.108.067l-3.571,7.3a.119.119,0,0,0,.107.172h7.063a.119.119,0,0,0,.108-.171ZM15.97,55.3l3.378-6.9,3.3,6.9Z" transform="translate(-15.627 -45.371)"/>
    <path id="Path_37934" data-name="Path 37934" d="M150.168,141.128v.154a3.377,3.377,0,0,0,3.378,3.378h.308a3.377,3.377,0,0,0,3.378-3.378v-.154Z" transform="translate(-139.421 -131.082)"/>
    <path id="Path_37935" data-name="Path 37935" d="M155.851,139.627h-7.063a.119.119,0,0,0-.119.119v.154a3.5,3.5,0,0,0,3.5,3.5h.308a3.5,3.5,0,0,0,3.5-3.5v-.154a.119.119,0,0,0-.126-.119Zm-.119.274a3.262,3.262,0,0,1-3.258,3.258h-.308a3.262,3.262,0,0,1-3.258-3.258v-.035h6.824Z" transform="translate(-138.04 -129.701)"/>
    <path id="Path_37936" data-name="Path 37936" d="M155.959,55.367l-3.492-7.3A.119.119,0,0,0,152.36,48h0a.119.119,0,0,0-.107.067l-3.571,7.3a.12.12,0,0,0,.107.172h7.063a.119.119,0,0,0,.108-.171Zm-6.98-.068,3.378-6.9,3.3,6.9Z" transform="translate(-138.04 -45.373)"/>
    <circle id="Ellipse_270" data-name="Ellipse 270" cx="1.792" cy="1.792" r="1.792" transform="translate(7.189 0.119)"/>
    <path id="Path_37937" data-name="Path 37937" d="M105.912,15.018a1.912,1.912,0,1,0,1.912,1.912,1.912,1.912,0,0,0-1.912-1.912Zm0,3.585a1.673,1.673,0,1,1,1.673-1.673,1.673,1.673,0,0,1-1.673,1.673Z" transform="translate(-96.93 -15.018)"/>
    <circle id="Ellipse_271" data-name="Ellipse 271" cx="0.754" cy="0.754" r="0.754" transform="translate(7.998 1.501) rotate(-22.514)"/>
    <path id="Path_37938" data-name="Path 37938" d="M117.91,28.055a.873.873,0,1,0,.873.873.873.873,0,0,0-.873-.873Zm0,1.508a.634.634,0,1,1,.634-.634.634.634,0,0,1-.634.634Z" transform="translate(-108.929 -27.017)"/>
    <path id="Path_37939" data-name="Path 37939" d="M208.522,30.04H206.77a.715.715,0,0,1,0,1.431h1.752a.715.715,0,0,0,0-1.431Z" transform="translate(-191.514 -28.843)"/>
    <path id="Path_37940" data-name="Path 37940" d="M165.662,220.02H163.91a1.553,1.553,0,0,1,1.546,1.431h1.752A1.553,1.553,0,0,0,165.662,220.02Z" transform="translate(-152.068 -203.69)"/>
    <path id="Path_37941" data-name="Path 37941" d="M186.046,142.63v.034a3.264,3.264,0,0,1-2.536,3.178,3.265,3.265,0,0,0,.722.08h.308a3.261,3.261,0,0,0,3.258-3.258v-.034Z" transform="translate(-170.107 -132.465)"/>
  </g>
</svg>
