<svg xmlns="http://www.w3.org/2000/svg" width="15.736" height="15.822" viewBox="0 0 15.736 15.822">
  <g id="Group_35131" data-name="Group 35131" transform="translate(0.001 0.003)">
    <g id="arrow-down-sign-to-navigate" transform="translate(6.717 15.82) rotate(-90)">
      <path id="Path_36455" data-name="Path 36455" d="M7.91,9.018a1.1,1.1,0,0,1-.783-.324l-6.8-6.8A1.108,1.108,0,0,1,1.891.324L7.91,6.343,13.929.325A1.109,1.109,0,1,1,15.5,1.891l-6.8,6.8A1.1,1.1,0,0,1,7.91,9.018Z" fill="#fff"/>
    </g>
    <g id="arrow-down-sign-to-navigate-2" data-name="arrow-down-sign-to-navigate" transform="translate(0 15.82) rotate(-90)">
      <path id="Path_36455-2" data-name="Path 36455" d="M7.91,9.018a1.1,1.1,0,0,1-.783-.324l-6.8-6.8A1.108,1.108,0,0,1,1.891.324L7.91,6.343,13.929.325A1.109,1.109,0,1,1,15.5,1.891l-6.8,6.8A1.1,1.1,0,0,1,7.91,9.018Z" fill="#fff"/>
    </g>
  </g>
</svg>
