<svg xmlns="http://www.w3.org/2000/svg" width="15.499" height="20.3" viewBox="0 0 15.499 20.3">
  <g id="iconfinder_delete_370086" transform="translate(0.15 0.153)">
    <path id="Path_37910" data-name="Path 37910" d="M82.563,9.7h-4V8.9a1.6,1.6,0,0,0-1.6-1.6h-4a1.6,1.6,0,0,0-1.6,1.6v.8h-4v.8h.824l.8,15.2a1.6,1.6,0,0,0,1.6,1.6h8.8a1.6,1.6,0,0,0,1.6-1.6l.787-15.2h.788V9.7Zm-10.4-.8a.8.8,0,0,1,.8-.8h4a.8.8,0,0,1,.8.8v.8h-5.6Zm8.026,16.758V25.7a.8.8,0,0,1-.8.8h-8.8a.8.8,0,0,1-.8-.8v-.042l-.8-15.158H80.974Z" transform="translate(-67.363 -7.304)" stroke="#000" stroke-width="0.3"/>
    <rect id="Rectangle_1372" data-name="Rectangle 1372" width="0.8" height="12.8" transform="translate(7.2 4.8)" stroke="#000" stroke-width="0.3"/>
    <path id="Path_37911" data-name="Path 37911" d="M168.339,139.268l-.819-12.775-.8.051.819,12.775Z" transform="translate(-162.721 -121.694)" stroke="#000" stroke-width="0.3"/>
    <path id="Path_37912" data-name="Path 37912" d="M307.382,125.941l-.8-.05-.807,12.8.8.05Z" transform="translate(-296.177 -121.116)" stroke="#000" stroke-width="0.3"/>
  </g>
</svg>
