<svg xmlns="http://www.w3.org/2000/svg" width="10.253" height="13.399" viewBox="0 0 10.253 13.399">
  <g id="iconfinder_delete_370086" transform="translate(-67.213 -7.15)">
    <path id="Path_37910" data-name="Path 37910" d="M77.312,8.875H74.694V8.351A1.047,1.047,0,0,0,73.647,7.3H71.029a1.047,1.047,0,0,0-1.047,1.047v.524H67.363V9.4h.54l.524,9.949A1.047,1.047,0,0,0,69.474,20.4h5.76a1.047,1.047,0,0,0,1.047-1.047L76.8,9.4h.516V8.875ZM70.5,8.351a.524.524,0,0,1,.524-.524h2.618a.524.524,0,0,1,.524.524v.524H70.5Zm5.254,10.97v.027a.524.524,0,0,1-.524.524H69.47a.525.525,0,0,1-.524-.524V19.32L68.427,9.4h7.846Z" fill="#707070" stroke="#707070" stroke-width="0.3"/>
    <rect id="Rectangle_1372" data-name="Rectangle 1372" width="0.524" height="8.378" transform="translate(72.076 10.446)" fill="#707070" stroke="#707070" stroke-width="0.3"/>
    <path id="Path_37911" data-name="Path 37911" d="M167.781,134.855l-.536-8.362-.523.033.536,8.362Z" transform="translate(-96.74 -116.048)" fill="#707070" stroke="#707070" stroke-width="0.3"/>
    <path id="Path_37912" data-name="Path 37912" d="M306.828,125.924l-.523-.033-.528,8.378.523.033Z" transform="translate(-232.13 -115.461)" fill="#707070" stroke="#707070" stroke-width="0.3"/>
  </g>
</svg>
