<svg xmlns="http://www.w3.org/2000/svg" xmlns:xlink="http://www.w3.org/1999/xlink" width="150.626" height="252.806" viewBox="0 0 150.626 252.806">
  <defs>
    <radialGradient id="radial-gradient" cx="0.506" cy="0.061" r="2.381" gradientTransform="translate(0.383 0.04) scale(0.243 0.343)" gradientUnits="objectBoundingBox">
      <stop offset="0.005" stop-color="#fff" stop-opacity="0"/>
      <stop offset="0.243" stop-color="#ffe7b6" stop-opacity="0.286"/>
      <stop offset="0.517" stop-color="#ffce68" stop-opacity="0.588"/>
      <stop offset="0.743" stop-color="#ffbb30" stop-opacity="0.812"/>
      <stop offset="0.91" stop-color="#ffb00d" stop-opacity="0.949"/>
      <stop offset="1" stop-color="#ffac00"/>
    </radialGradient>
    <radialGradient id="radial-gradient-2" cx="0.525" cy="0.752" r="1.026" gradientTransform="translate(0.06) scale(0.879 1)" gradientUnits="objectBoundingBox">
      <stop offset="0" stop-color="#ffcd00" stop-opacity="0"/>
      <stop offset="0.138" stop-color="#ffcd00" stop-opacity="0.016"/>
      <stop offset="0.265" stop-color="#ffcd00" stop-opacity="0.059"/>
      <stop offset="0.388" stop-color="#ffcd00" stop-opacity="0.133"/>
      <stop offset="0.509" stop-color="#ffcd00" stop-opacity="0.235"/>
      <stop offset="0.627" stop-color="#ffcd00" stop-opacity="0.369"/>
      <stop offset="0.744" stop-color="#ffcd00" stop-opacity="0.529"/>
      <stop offset="0.86" stop-color="#ffcd00" stop-opacity="0.725"/>
      <stop offset="0.973" stop-color="#ffcd00" stop-opacity="0.941"/>
      <stop offset="1" stop-color="#ffcd00"/>
    </radialGradient>
    <radialGradient id="radial-gradient-3" cx="0.505" cy="2.531" r="3.362" gradientTransform="translate(0.377) scale(0.246 1)" xlink:href="#radial-gradient-2"/>
    <radialGradient id="radial-gradient-4" cx="0.504" cy="0.525" r="2.384" gradientTransform="translate(0.389) scale(0.222 1)" gradientUnits="objectBoundingBox">
      <stop offset="0" stop-color="#ffcd00" stop-opacity="0"/>
      <stop offset="0.017" stop-color="#ffcd00" stop-opacity="0.016"/>
      <stop offset="0.033" stop-color="#ffcd00" stop-opacity="0.059"/>
      <stop offset="0.048" stop-color="#ffcd00" stop-opacity="0.133"/>
      <stop offset="0.062" stop-color="#ffcd00" stop-opacity="0.235"/>
      <stop offset="0.077" stop-color="#ffcd00" stop-opacity="0.369"/>
      <stop offset="0.091" stop-color="#ffcd00" stop-opacity="0.529"/>
      <stop offset="0.106" stop-color="#ffcd00" stop-opacity="0.725"/>
      <stop offset="0.119" stop-color="#ffcd00" stop-opacity="0.941"/>
      <stop offset="0.123" stop-color="#ffcd00"/>
      <stop offset="0.192" stop-color="#ffe114"/>
      <stop offset="0.302" stop-color="#ffff31"/>
      <stop offset="0.437" stop-color="#ffec1e"/>
      <stop offset="0.615" stop-color="#ffcd00"/>
      <stop offset="0.637" stop-color="#ffd00a"/>
      <stop offset="0.675" stop-color="#ffdb26"/>
      <stop offset="0.724" stop-color="#ffec53"/>
      <stop offset="0.771" stop-color="#ffff87"/>
      <stop offset="0.814" stop-color="#fff773"/>
      <stop offset="0.902" stop-color="#ffe440"/>
      <stop offset="1" stop-color="#ffcd00"/>
    </radialGradient>
    <radialGradient id="radial-gradient-5" cx="0.504" cy="0.525" r="0.857" gradientTransform="matrix(1, 0, 0, 1, 0, 0)" xlink:href="#radial-gradient-2"/>
    <radialGradient id="radial-gradient-6" cx="0.504" cy="0.525" r="2.646" gradientTransform="matrix(1, 0, 0, 1, 0, 0)" xlink:href="#radial-gradient-4"/>
    <radialGradient id="radial-gradient-7" cx="0.491" cy="0.16" r="0.659" gradientUnits="objectBoundingBox">
      <stop offset="0.002" stop-color="#ffff34"/>
      <stop offset="0.153" stop-color="#fff12e"/>
      <stop offset="0.435" stop-color="#ffcf21"/>
      <stop offset="0.812" stop-color="#ff980b"/>
      <stop offset="1" stop-color="#ff7a00"/>
    </radialGradient>
    <radialGradient id="radial-gradient-8" cx="0.492" cy="0.16" r="0.568" gradientTransform="translate(-2.027) scale(5.054 1)" xlink:href="#radial-gradient-7"/>
    <radialGradient id="radial-gradient-9" cx="0.491" cy="0.16" r="0.564" gradientTransform="translate(-6.016) scale(13.032 1)" xlink:href="#radial-gradient-7"/>
    <radialGradient id="radial-gradient-10" cx="0.491" cy="0.16" r="0.573" gradientTransform="translate(-1.2) scale(3.401 1)" xlink:href="#radial-gradient-7"/>
    <radialGradient id="radial-gradient-11" cx="0.492" cy="0.16" r="0.564" gradientTransform="translate(-7.729) scale(16.459 1)" xlink:href="#radial-gradient-7"/>
    <radialGradient id="radial-gradient-12" cx="0.491" cy="0.16" r="0.568" gradientTransform="translate(-1.962) scale(4.923 1)" xlink:href="#radial-gradient-7"/>
    <radialGradient id="radial-gradient-13" cx="0.491" cy="0.16" r="0.579" gradientTransform="translate(-0.794) scale(2.588 1)" xlink:href="#radial-gradient-7"/>
    <radialGradient id="radial-gradient-14" cx="0.464" cy="0.826" r="1.133" gradientUnits="objectBoundingBox">
      <stop offset="0" stop-color="#ffaf00"/>
      <stop offset="0.193" stop-color="#ffb504"/>
      <stop offset="0.461" stop-color="#ffc70f"/>
      <stop offset="0.773" stop-color="#ffe523"/>
      <stop offset="0.998" stop-color="#ffff34"/>
    </radialGradient>
    <linearGradient id="linear-gradient" y1="0.5" x2="1" y2="0.5" gradientUnits="objectBoundingBox">
      <stop offset="0" stop-color="#ffaf00"/>
      <stop offset="0.025" stop-color="#ffb206"/>
      <stop offset="0.06" stop-color="#ffba18"/>
      <stop offset="0.102" stop-color="#ffc936"/>
      <stop offset="0.147" stop-color="#ffdc5f"/>
      <stop offset="0.196" stop-color="#fff594"/>
      <stop offset="0.212" stop-color="#ffffa7"/>
      <stop offset="0.244" stop-color="#fffa9b"/>
      <stop offset="0.303" stop-color="#ffee7c"/>
      <stop offset="0.38" stop-color="#ffdb4a"/>
      <stop offset="0.465" stop-color="#ffc30d"/>
      <stop offset="0.542" stop-color="#ffd317"/>
      <stop offset="0.693" stop-color="#fffe33"/>
      <stop offset="0.694" stop-color="#ffff34"/>
      <stop offset="0.828" stop-color="#ffea26"/>
      <stop offset="1" stop-color="#ffff34"/>
    </linearGradient>
    <radialGradient id="radial-gradient-15" cx="0.464" cy="0.826" r="1.133" gradientUnits="objectBoundingBox">
      <stop offset="0.002" stop-color="#ffff34"/>
      <stop offset="0.122" stop-color="#ffea2a"/>
      <stop offset="0.392" stop-color="#ffc118"/>
      <stop offset="0.638" stop-color="#ffa30a"/>
      <stop offset="0.849" stop-color="#ff9102"/>
      <stop offset="1" stop-color="#ff8b00"/>
    </radialGradient>
    <radialGradient id="radial-gradient-16" cx="0.517" cy="0.955" r="0.884" gradientTransform="translate(-0.226) scale(1.453 1)" xlink:href="#radial-gradient-4"/>
    <radialGradient id="radial-gradient-17" cx="0.517" cy="0.955" r="0.948" gradientTransform="translate(-0.177) scale(1.353 1)" xlink:href="#radial-gradient-4"/>
    <radialGradient id="radial-gradient-18" cx="0.517" cy="0.955" r="2.305" gradientTransform="translate(0.223) scale(0.553 1)" xlink:href="#radial-gradient-4"/>
    <radialGradient id="radial-gradient-19" cx="0.525" cy="0.752" r="1.646" gradientTransform="translate(0.242) scale(0.516 1)" xlink:href="#radial-gradient-4"/>
    <radialGradient id="radial-gradient-20" cx="0.504" cy="0.525" r="2.4" gradientTransform="translate(0.39) scale(0.22 1)" xlink:href="#radial-gradient-4"/>
    <radialGradient id="radial-gradient-21" cx="0.464" cy="0.826" r="1.274" gradientTransform="matrix(1, 0, 0, 1, 0, 0)" xlink:href="#radial-gradient-2"/>
    <radialGradient id="radial-gradient-22" cx="0.504" cy="0.525" r="2.682" gradientTransform="translate(0.409 0.38) scale(0.19 0.276)" gradientUnits="objectBoundingBox">
      <stop offset="0" stop-color="#ffcd00" stop-opacity="0"/>
      <stop offset="0.348" stop-color="#f0c500" stop-opacity="0.333"/>
      <stop offset="1" stop-color="#d4b800"/>
    </radialGradient>
    <radialGradient id="radial-gradient-23" cx="0.504" cy="0.525" r="5.023" gradientTransform="translate(0.454 0.38) scale(0.1 0.276)" xlink:href="#radial-gradient-4"/>
    <radialGradient id="radial-gradient-24" cx="0.504" cy="0.525" r="5.061" gradientTransform="translate(0.454 0.38) scale(0.1 0.276)" xlink:href="#radial-gradient-4"/>
    <radialGradient id="radial-gradient-25" cx="0.496" cy="0.637" r="0.779" gradientTransform="translate(0.106) scale(0.789 1)" gradientUnits="objectBoundingBox">
      <stop offset="0" stop-color="#ffcd00" stop-opacity="0"/>
      <stop offset="0.138" stop-color="#fc0" stop-opacity="0.016"/>
      <stop offset="0.265" stop-color="#ffca00" stop-opacity="0.059"/>
      <stop offset="0.388" stop-color="#ffc800" stop-opacity="0.133"/>
      <stop offset="0.509" stop-color="#ffc400" stop-opacity="0.235"/>
      <stop offset="0.627" stop-color="#ffc000" stop-opacity="0.369"/>
      <stop offset="0.744" stop-color="#ffba00" stop-opacity="0.529"/>
      <stop offset="0.86" stop-color="#ffb300" stop-opacity="0.725"/>
      <stop offset="0.973" stop-color="#ffac00" stop-opacity="0.941"/>
      <stop offset="1" stop-color="#fa0"/>
    </radialGradient>
    <radialGradient id="radial-gradient-26" cx="0.542" cy="0.969" r="1.236" gradientTransform="translate(0.066) scale(0.867 1)" xlink:href="#radial-gradient-25"/>
    <radialGradient id="radial-gradient-27" cx="0.496" cy="0.637" r="1.119" gradientTransform="translate(0.246) scale(0.508 1)" xlink:href="#radial-gradient-4"/>
    <radialGradient id="radial-gradient-28" cx="0.496" cy="0.637" r="1.076" gradientTransform="translate(0.234) scale(0.532 1)" xlink:href="#radial-gradient-4"/>
    <radialGradient id="radial-gradient-30" cx="0.496" cy="0.637" r="1.111" gradientTransform="translate(0.244) scale(0.513 1)" xlink:href="#radial-gradient-4"/>
    <radialGradient id="radial-gradient-33" cx="0.491" cy="0.16" r="0.564" gradientTransform="translate(-6.018) scale(13.036 1)" xlink:href="#radial-gradient-7"/>
    <radialGradient id="radial-gradient-34" cx="0.491" cy="0.16" r="0.573" gradientTransform="translate(-1.2) scale(3.4 1)" xlink:href="#radial-gradient-7"/>
    <radialGradient id="radial-gradient-35" cx="0.492" cy="0.16" r="0.564" gradientTransform="translate(-7.735) scale(16.471 1)" xlink:href="#radial-gradient-7"/>
    <radialGradient id="radial-gradient-36" cx="0.491" cy="0.16" r="0.568" gradientTransform="translate(-1.961) scale(4.921 1)" xlink:href="#radial-gradient-7"/>
    <radialGradient id="radial-gradient-37" cx="0.491" cy="0.16" r="0.579" gradientTransform="translate(-0.794) scale(2.589 1)" xlink:href="#radial-gradient-7"/>
  </defs>
  <g id="Group_35771" data-name="Group 35771" transform="translate(-213.904 -159.75)">
    <ellipse id="Ellipse_227" data-name="Ellipse 227" cx="73.504" cy="17.879" rx="73.504" ry="17.879" transform="translate(217.396 376.798)" opacity="0.28" fill="url(#radial-gradient)"/>
    <g id="Group_35770" data-name="Group 35770" transform="translate(213.904 159.75)">
      <rect id="Rectangle_1355" data-name="Rectangle 1355" width="150.501" height="132.364" rx="15.817" transform="translate(0 82.824)" fill="url(#radial-gradient-2)"/>
      <path id="Path_37802" data-name="Path 37802" d="M222.079,204.644v22.182a31.726,31.726,0,0,1,15.086-3.795h21.15V200.849h-21.15a31.726,31.726,0,0,0-15.086,3.8Zm42.983,18.387h16.076V200.849H265.062Zm23.907,0h3.458V200.849h-3.458Zm34.948-22.182H311.594v22.182h12.323a32.027,32.027,0,0,1,3.752.24V201.089a32.031,32.031,0,0,0-3.752-.24Z" transform="translate(-205.29 -118.025)" fill="url(#radial-gradient-3)"/>
      <path id="Path_37803" data-name="Path 37803" d="M332.375,200.849H245.623a31.875,31.875,0,0,0-31.875,31.875v1.544a31.876,31.876,0,0,1,31.874-31.875h86.753a31.876,31.876,0,0,1,31.875,31.874v-1.543a31.875,31.875,0,0,0-31.875-31.875Z" transform="translate(-213.748 -118.025)" fill="url(#radial-gradient-4)"/>
      <rect id="Rectangle_1356" data-name="Rectangle 1356" width="150.501" height="132.364" rx="15.817" transform="translate(0.125 104.906)" fill="url(#radial-gradient-5)"/>
      <path id="Path_37804" data-name="Path 37804" d="M332.435,292.746h-86.75a31.875,31.875,0,0,1-31.875-31.875v1.61a31.874,31.874,0,0,0,31.876,31.875h86.749A31.874,31.874,0,0,0,364.31,262.48v-1.609a31.875,31.875,0,0,1-31.875,31.875Z" transform="translate(-213.685 -57.088)" fill="url(#radial-gradient-6)"/>
      <g id="Group_35758" data-name="Group 35758" transform="translate(18.31 107.308)">
        <g id="Group_35755" data-name="Group 35755">
          <circle id="Ellipse_228" data-name="Ellipse 228" cx="56.921" cy="56.921" r="56.921" transform="translate(0 0)" fill="url(#radial-gradient-7)"/>
          <g id="Group_35752" data-name="Group 35752" transform="translate(6.844 2.359)">
            <path id="Path_37805" data-name="Path 37805" d="M271.509,220.848a56.852,56.852,0,0,0-7.106-4.512v35.91h7.106Z" transform="translate(-187.475 -211.969)" fill="url(#radial-gradient-8)"/>
            <path id="Path_37806" data-name="Path 37806" d="M263.03,215.582q-1.218-.5-2.463-.945V246.73h2.463Z" transform="translate(-191.37 -213.694)" fill="url(#radial-gradient-9)"/>
            <path id="Path_37807" data-name="Path 37807" d="M283.944,239.183a57.053,57.053,0,0,0-14.214-19.141V268.38h14.214Z" transform="translate(-182.066 -208.206)" fill="url(#radial-gradient-10)"/>
            <path id="Path_37808" data-name="Path 37808" d="M242.034,214.81V247.2h2.007V214.169C243.366,214.369,242.7,214.584,242.034,214.81Z" transform="translate(-210.185 -214.169)" fill="url(#radial-gradient-11)"/>
            <path id="Path_37809" data-name="Path 37809" d="M243.5,215.293a56.868,56.868,0,0,0-7.106,3.668v31.317H243.5Z" transform="translate(-215.912 -213.028)" fill="url(#radial-gradient-12)"/>
            <path id="Path_37810" data-name="Path 37810" d="M240.441,219.315a57.156,57.156,0,0,0-14.211,17.111V256.1h14.211Z" transform="translate(-226.23 -208.945)" fill="url(#radial-gradient-13)"/>
          </g>
          <circle id="Ellipse_229" data-name="Ellipse 229" cx="56.921" cy="56.921" r="56.921" transform="translate(0 7.349)" fill="url(#radial-gradient-14)"/>
          <path id="Path_37811" data-name="Path 37811" d="M279.754,217.209a56.918,56.918,0,0,1,56.914,56.634c0-.091.006-.183.006-.276a56.921,56.921,0,0,0-113.841,0c0,.093.006.185.006.28a56.919,56.919,0,0,1,56.915-56.638Z" transform="translate(-222.834 -209.296)" fill="url(#linear-gradient)"/>
          <circle id="Ellipse_230" data-name="Ellipse 230" cx="46.584" cy="46.584" r="46.584" transform="translate(10.336 17.686)" fill="url(#radial-gradient-15)"/>
          <circle id="Ellipse_231" data-name="Ellipse 231" cx="41.86" cy="41.86" r="41.86" transform="translate(15.061 22.41)" fill="none" stroke="#ffe700" stroke-miterlimit="10" stroke-width="1"/>
          <circle id="Ellipse_232" data-name="Ellipse 232" cx="41.86" cy="41.86" r="41.86" transform="translate(15.061 22.41)" fill="none" stroke="#ff7b00" stroke-miterlimit="10" stroke-width="0.5"/>
          <path id="Path_37812" data-name="Path 37812" d="M274.547,222.808a46.577,46.577,0,0,1,46.572,46.065c0-.17.012-.342.012-.513a46.585,46.585,0,0,0-93.169,0c0,.171.01.343.012.516a46.578,46.578,0,0,1,46.573-46.068Z" transform="translate(-217.627 -204.089)" fill="url(#linear-gradient)"/>
          <g id="Group_35753" data-name="Group 35753" transform="translate(40.7 29.083)">
            <path id="Path_37813" data-name="Path 37813" d="M277.14,270.9q0,6.375-3.609,10.215a17.27,17.27,0,0,1-8.75,5.066v5.23q0,1.551-.079,2.37a5.834,5.834,0,0,1-.524,1.8,2.6,2.6,0,0,1-1.445,1.388,9.03,9.03,0,0,1-5.375,0,2.45,2.45,0,0,1-1.407-1.431,6.956,6.956,0,0,1-.482-1.8q-.082-.777-.081-2.41v-5.066a18.086,18.086,0,0,1-5.939-2.451,15.925,15.925,0,0,1-3.692-3.025l-1.044-1.388a6.6,6.6,0,0,1-1.685-3.432q0-2.04,2.729-4.74a4.769,4.769,0,0,1,3.291-1.552q1.926,0,4.736,2.862l.4.407q2.488,3.1,5.619,3.105,5.94,0,5.939-4.986,0-1.8-2.247-2.777a33.4,33.4,0,0,0-5.457-1.757,44.742,44.742,0,0,1-6.421-2.084,12.341,12.341,0,0,1-5.457-4.494,14.332,14.332,0,0,1,9.228-21.98V233.4q0-1.632.081-2.41a6.458,6.458,0,0,1,.482-1.757,2.452,2.452,0,0,1,1.445-1.389,7.616,7.616,0,0,1,2.729-.409,4.844,4.844,0,0,1,3.251.941,3.357,3.357,0,0,1,1.245,2,22.5,22.5,0,0,1,.159,3.106v4.575a18.13,18.13,0,0,1,4.093,1.391,15.686,15.686,0,0,1,2.569,1.469l.721.655.322.244q2,1.883,2.005,3.025a7.949,7.949,0,0,1-1.6,3.758q-2.167,3.268-4.413,3.269a5.923,5.923,0,0,1-3.293-1.308c-.107-.109-.349-.327-.721-.655a11.252,11.252,0,0,0-1.044-.816,5.457,5.457,0,0,0-1.525-.613,9.535,9.535,0,0,0-2.487-.286,4.739,4.739,0,0,0-2.89,1.022,3.172,3.172,0,0,0-1.364,2.656,3.488,3.488,0,0,0,1.644,3.063,9.841,9.841,0,0,0,4.055,1.471,40.485,40.485,0,0,1,5.3,1.225,36.659,36.659,0,0,1,5.3,2,9.4,9.4,0,0,1,4.053,4.045,14.468,14.468,0,0,1,1.635,7.228Z" transform="translate(-243.03 -227.43)" fill="#ffff68"/>
          </g>
          <g id="Group_35754" data-name="Group 35754" transform="translate(40.7 29.083)">
            <path id="Path_37814" data-name="Path 37814" d="M277.14,270.129q0,6.263-3.609,10.034a17.339,17.339,0,0,1-8.75,4.978v5.137q0,1.524-.079,2.328a5.65,5.65,0,0,1-.524,1.765,2.574,2.574,0,0,1-1.445,1.362,9.158,9.158,0,0,1-5.375,0,2.42,2.42,0,0,1-1.407-1.4,6.734,6.734,0,0,1-.482-1.767q-.082-.762-.081-2.366v-4.978a18.235,18.235,0,0,1-5.939-2.408,15.837,15.837,0,0,1-3.692-2.968l-1.044-1.364a6.451,6.451,0,0,1-1.685-3.371q0-2.007,2.729-4.655a4.8,4.8,0,0,1,3.291-1.526q1.926,0,4.736,2.809l.4.4a7.185,7.185,0,0,0,5.619,3.051q5.94,0,5.939-4.9,0-1.762-2.247-2.729a34,34,0,0,0-5.457-1.725,45.546,45.546,0,0,1-6.421-2.047,12.293,12.293,0,0,1-5.457-4.413,14.426,14.426,0,0,1,.8-16.616,13.986,13.986,0,0,1,8.426-4.976V233.29q0-1.6.081-2.368a6.247,6.247,0,0,1,.482-1.727,2.428,2.428,0,0,1,1.445-1.362,7.719,7.719,0,0,1,2.729-.4,4.922,4.922,0,0,1,3.251.923,3.293,3.293,0,0,1,1.245,1.967,21.716,21.716,0,0,1,.159,3.051v4.494a18.314,18.314,0,0,1,4.093,1.364,15.566,15.566,0,0,1,2.569,1.445l.721.641.322.242q2,1.847,2.005,2.968a7.728,7.728,0,0,1-1.6,3.694q-2.167,3.21-4.413,3.21a5.978,5.978,0,0,1-3.293-1.286c-.107-.1-.349-.32-.721-.641a10.927,10.927,0,0,0-1.044-.8,5.433,5.433,0,0,0-1.525-.6,9.644,9.644,0,0,0-2.487-.28,4.8,4.8,0,0,0-2.89,1,3.1,3.1,0,0,0-1.364,2.61,3.413,3.413,0,0,0,1.644,3.009,9.943,9.943,0,0,0,4.055,1.445,40.857,40.857,0,0,1,5.3,1.205,36.9,36.9,0,0,1,5.3,1.967,9.32,9.32,0,0,1,4.053,3.972,14,14,0,0,1,1.637,7.1Z" transform="translate(-243.03 -227.43)" fill="#ff7b00"/>
          </g>
          <text id="_" data-name="$" transform="translate(38.693 88.632)" fill="#ff7b00" font-size="78" font-family="SegoeUI, Segoe UI" letter-spacing="0.02em"><tspan x="0" y="0">$</tspan></text>
        </g>
        <g id="Group_35756" data-name="Group 35756" transform="translate(70.227 59.181)">
          <path id="Path_37815" data-name="Path 37815" d="M277.084,252.87a4.622,4.622,0,0,0-1.771,1.63,40.3,40.3,0,0,0,.657-4.867,3.9,3.9,0,0,0,2.277-.25,4.281,4.281,0,0,0,1.852-2.1,4.23,4.23,0,0,0-2.785.139,3.534,3.534,0,0,0-1.274,1.1,48.409,48.409,0,0,0-.026-5.423.776.776,0,1,0-1.55.093,46.058,46.058,0,0,1,.03,5.155,2.363,2.363,0,0,0-.187-.677,3.319,3.319,0,0,0-1.594-1.461,3.357,3.357,0,0,0,.093,2.168,3.309,3.309,0,0,0,1.594,1.459v-.018a38.7,38.7,0,0,1-.52,3.881,3.7,3.7,0,0,0-.29-1.02,4.873,4.873,0,0,0-2.344-2.144,4.913,4.913,0,0,0,.137,3.182,4.669,4.669,0,0,0,2.062,2.011,32.633,32.633,0,0,1-1.37,4.254,4.886,4.886,0,0,0-.163-1.846,6.279,6.279,0,0,0-2.592-3.156,6.308,6.308,0,0,0-.4,4.071A6.043,6.043,0,0,0,271.2,262a29.015,29.015,0,0,1-2.392,4.071,5.565,5.565,0,0,0,.075-2.172,7.043,7.043,0,0,0-2.477-3.841,7.05,7.05,0,0,0-.967,4.468,6.557,6.557,0,0,0,1.963,3.384c-.157.187-.314.379-.47.556a27.15,27.15,0,0,1-3.964,3.67,6.768,6.768,0,0,0,1.3-4.055,7.058,7.058,0,0,0-2.005-4.111,5.958,5.958,0,0,0,.451,8.363,22.042,22.042,0,0,1-4.492,2.654.785.785,0,0,0,.325,1.515.81.81,0,0,0,.226-.048,23.2,23.2,0,0,0,5.07-3.011,6.65,6.65,0,0,0,3.964,1.28,6.9,6.9,0,0,0,4.069-2.011,6.935,6.935,0,0,0-4.284-1.515,5.144,5.144,0,0,0-1.467.326c.635-.593,1.274-1.229,1.914-1.951.268-.3.54-.625.812-.959a6.6,6.6,0,0,0,3.9,1.235,6.9,6.9,0,0,0,4.067-2.009,6.927,6.927,0,0,0-4.282-1.515,5.767,5.767,0,0,0-2.632.895,30.673,30.673,0,0,0,2.781-4.722,4.925,4.925,0,0,0,2.8.828,5.284,5.284,0,0,0,3.112-1.538,5.3,5.3,0,0,0-3.277-1.159,4.521,4.521,0,0,0-2.136.76,34.319,34.319,0,0,0,1.89-5.836,5.06,5.06,0,0,0,3.166-.248,5.32,5.32,0,0,0,2.3-2.61,5.262,5.262,0,0,0-3.457.175Z" transform="translate(-257.641 -242.365)" fill="#ffff2a"/>
          <path id="Path_37816" data-name="Path 37816" d="M277.1,252.775a4.624,4.624,0,0,0-1.775,1.616,39.52,39.52,0,0,0,.669-4.822,3.954,3.954,0,0,0,2.277-.25,4.277,4.277,0,0,0,1.858-2.082,4.28,4.28,0,0,0-2.787.139,3.54,3.54,0,0,0-1.276,1.092,46.892,46.892,0,0,0-.012-5.373.776.776,0,1,0-1.55.091,46.115,46.115,0,0,1,.018,5.111,2.421,2.421,0,0,0-.185-.671,3.292,3.292,0,0,0-1.592-1.447,2.786,2.786,0,0,0,1.679,3.593v-.018a37.828,37.828,0,0,1-.53,3.845,3.594,3.594,0,0,0-.288-1.01,4.844,4.844,0,0,0-2.338-2.124,4.837,4.837,0,0,0,.129,3.156,4.62,4.62,0,0,0,2.056,1.991,32.118,32.118,0,0,1-1.38,4.216,4.825,4.825,0,0,0-.157-1.828,6.215,6.215,0,0,0-2.584-3.128,6.2,6.2,0,0,0-.413,4.034,5.965,5.965,0,0,0,2.271,2.922,28.547,28.547,0,0,1-2.4,4.036,5.424,5.424,0,0,0,.081-2.152,6.947,6.947,0,0,0-2.465-3.8,6.933,6.933,0,0,0-.979,4.426,6.488,6.488,0,0,0,1.953,3.355c-.157.185-.314.375-.47.55a27.344,27.344,0,0,1-3.972,3.638,6.689,6.689,0,0,0,1.306-4.018,6.951,6.951,0,0,0-2-4.073,6.956,6.956,0,0,0-1.5,4.28,6.837,6.837,0,0,0,1.931,4.006,22.112,22.112,0,0,1-4.5,2.634.777.777,0,0,0,.318,1.5.744.744,0,0,0,.226-.048,23.178,23.178,0,0,0,5.076-2.985,6.678,6.678,0,0,0,3.962,1.264,6.943,6.943,0,0,0,4.073-1.993,6.944,6.944,0,0,0-4.28-1.5,5.087,5.087,0,0,0-1.467.324c.635-.588,1.276-1.219,1.919-1.935q.4-.45.816-.953a6.6,6.6,0,0,0,3.9,1.223,6.933,6.933,0,0,0,4.071-1.993,6.941,6.941,0,0,0-4.278-1.5,5.8,5.8,0,0,0-2.634.889,30.465,30.465,0,0,0,2.793-4.681,4.915,4.915,0,0,0,2.8.818,5.314,5.314,0,0,0,3.114-1.523,5.311,5.311,0,0,0-3.273-1.147,4.548,4.548,0,0,0-2.138.754,33.994,33.994,0,0,0,1.9-5.786,5.1,5.1,0,0,0,3.166-.248,5.312,5.312,0,0,0,2.309-2.586,5.306,5.306,0,0,0-3.448.171Z" transform="translate(-257.682 -242.365)" fill="#ffb200"/>
        </g>
        <g id="Group_35757" data-name="Group 35757" transform="translate(21.055 59.181)">
          <path id="Path_37817" data-name="Path 37817" d="M236.746,252.87a4.637,4.637,0,0,1,1.771,1.63,40.7,40.7,0,0,1-.659-4.867,3.9,3.9,0,0,1-2.275-.25,4.281,4.281,0,0,1-1.852-2.1,4.229,4.229,0,0,1,2.785.139,3.534,3.534,0,0,1,1.274,1.1,47.922,47.922,0,0,1,.026-5.423.775.775,0,0,1,1.548.093,47.03,47.03,0,0,0-.03,5.155,2.436,2.436,0,0,1,.189-.677,3.319,3.319,0,0,1,1.594-1.461,3.356,3.356,0,0,1-.093,2.168,3.309,3.309,0,0,1-1.594,1.459l-.006-.018a38.7,38.7,0,0,0,.522,3.881,3.625,3.625,0,0,1,.29-1.02,4.873,4.873,0,0,1,2.342-2.144,4.906,4.906,0,0,1-.135,3.182,4.669,4.669,0,0,1-2.062,2.011,32.658,32.658,0,0,0,1.368,4.254,4.927,4.927,0,0,1,.163-1.846,6.278,6.278,0,0,1,2.594-3.156,6.314,6.314,0,0,1,.4,4.071,6.041,6.041,0,0,1-2.279,2.95,29.011,29.011,0,0,0,2.392,4.071,5.565,5.565,0,0,1-.075-2.172,7.045,7.045,0,0,1,2.475-3.841,7.036,7.036,0,0,1,.967,4.468,6.569,6.569,0,0,1-1.961,3.384c.157.187.314.379.47.556a27.047,27.047,0,0,0,3.964,3.67,6.768,6.768,0,0,1-1.3-4.055,7.058,7.058,0,0,1,2.005-4.111,5.958,5.958,0,0,1-.451,8.363,22.126,22.126,0,0,0,4.49,2.654.785.785,0,0,1-.322,1.515.81.81,0,0,1-.226-.048,23.2,23.2,0,0,1-5.07-3.011,6.657,6.657,0,0,1-3.966,1.28,6.9,6.9,0,0,1-4.067-2.011,6.929,6.929,0,0,1,4.284-1.515,5.146,5.146,0,0,1,1.465.326c-.633-.593-1.272-1.229-1.912-1.951-.268-.3-.54-.625-.812-.959a6.612,6.612,0,0,1-3.9,1.235,6.906,6.906,0,0,1-4.069-2.009,6.936,6.936,0,0,1,4.284-1.515,5.749,5.749,0,0,1,2.63.9,30.672,30.672,0,0,1-2.779-4.722,4.932,4.932,0,0,1-2.805.828,5.275,5.275,0,0,1-3.11-1.538,5.3,5.3,0,0,1,3.275-1.159,4.521,4.521,0,0,1,2.138.76,34.319,34.319,0,0,1-1.89-5.836,5.06,5.06,0,0,1-3.166-.248,5.329,5.329,0,0,1-2.3-2.61,5.269,5.269,0,0,1,3.461.175Z" transform="translate(-233.282 -242.365)" fill="#ffff2a"/>
          <path id="Path_37818" data-name="Path 37818" d="M236.758,252.775a4.625,4.625,0,0,1,1.775,1.616,39.533,39.533,0,0,1-.669-4.822,3.954,3.954,0,0,1-2.277-.25,4.277,4.277,0,0,1-1.858-2.082,4.279,4.279,0,0,1,2.787.139,3.557,3.557,0,0,1,1.276,1.092,46.921,46.921,0,0,1,.012-5.373.775.775,0,0,1,1.548.091,45.626,45.626,0,0,0-.016,5.111,2.353,2.353,0,0,1,.185-.671,3.291,3.291,0,0,1,1.59-1.447,2.783,2.783,0,0,1-1.677,3.593v-.018a37.846,37.846,0,0,0,.53,3.845,3.6,3.6,0,0,1,.288-1.01,4.843,4.843,0,0,1,2.336-2.124,4.83,4.83,0,0,1-.127,3.156,4.64,4.64,0,0,1-2.056,1.991,32.436,32.436,0,0,0,1.378,4.216,4.829,4.829,0,0,1,.159-1.828,6.2,6.2,0,0,1,2.584-3.128,6.217,6.217,0,0,1,.413,4.034,5.966,5.966,0,0,1-2.273,2.922,28.744,28.744,0,0,0,2.4,4.036,5.461,5.461,0,0,1-.079-2.152,6.936,6.936,0,0,1,2.465-3.8,6.946,6.946,0,0,1,.979,4.426,6.487,6.487,0,0,1-1.953,3.355c.157.185.314.375.47.55a27.144,27.144,0,0,0,3.972,3.638,6.675,6.675,0,0,1-1.306-4.018,6.954,6.954,0,0,1,1.993-4.073,6.943,6.943,0,0,1,1.5,4.28,6.825,6.825,0,0,1-1.931,4.006,22.085,22.085,0,0,0,4.5,2.634.777.777,0,0,1-.32,1.5.757.757,0,0,1-.226-.048,23.228,23.228,0,0,1-5.076-2.985,6.665,6.665,0,0,1-3.96,1.264,6.934,6.934,0,0,1-4.073-1.993,6.941,6.941,0,0,1,4.278-1.5,5.075,5.075,0,0,1,1.467.324c-.635-.588-1.276-1.219-1.917-1.935q-.4-.45-.816-.953a6.606,6.606,0,0,1-3.9,1.223,6.933,6.933,0,0,1-4.071-1.993,6.941,6.941,0,0,1,4.278-1.5,5.786,5.786,0,0,1,2.632.889,30.63,30.63,0,0,1-2.791-4.681,4.92,4.92,0,0,1-2.8.818,5.314,5.314,0,0,1-3.114-1.523,5.3,5.3,0,0,1,3.271-1.147,4.54,4.54,0,0,1,2.138.754,34,34,0,0,1-1.9-5.786,5.11,5.11,0,0,1-3.168-.248,5.3,5.3,0,0,1-2.308-2.59,5.306,5.306,0,0,1,3.458.175Z" transform="translate(-233.268 -242.365)" fill="#ffb200"/>
        </g>
      </g>
      <g id="Group_35760" data-name="Group 35760" transform="translate(44.499 120.038)">
        <g id="Group_35759" data-name="Group 35759" transform="translate(0 31.093)">
          <path id="Path_37819" data-name="Path 37819" d="M256.523,263.768a31.537,31.537,0,0,1-20.67-29.017c0,.155-.024.3-.024.459a31.548,31.548,0,0,0,20.694,29.6Z" transform="translate(-235.829 -234.737)" fill="url(#radial-gradient-16)"/>
          <path id="Path_37820" data-name="Path 37820" d="M255.877,264.461v1.046a31.56,31.56,0,0,0,22.732-30.289c0-.159-.022-.314-.024-.474A31.549,31.549,0,0,1,255.877,264.461Z" transform="translate(-215.475 -234.744)" fill="url(#radial-gradient-17)"/>
          <path id="Path_37821" data-name="Path 37821" d="M255.953,274.082a9.882,9.882,0,0,1-9.855-9.852v1.046a9.854,9.854,0,1,0,19.708,0V264.23a9.881,9.881,0,0,1-9.852,9.852Z" transform="translate(-225.403 -204.809)" fill="url(#radial-gradient-18)"/>
        </g>
        <path id="Path_37822" data-name="Path 37822" d="M267.4,221.183A31.545,31.545,0,0,1,298.924,251.9c.012-.343.042-.679.042-1.024a31.567,31.567,0,1,0-63.133,0c0,.248.053.482.059.73A31.542,31.542,0,0,1,267.4,221.183Z" transform="translate(-235.829 -219.315)" fill="url(#radial-gradient-19)"/>
      </g>
      <path id="Path_37823" data-name="Path 37823" d="M332.375,211.856H245.623a31.875,31.875,0,0,0-31.875,31.875v1.308a31.875,31.875,0,0,1,31.875-31.875h86.752a31.875,31.875,0,0,1,31.875,31.875v-1.308a31.875,31.875,0,0,0-31.875-31.875Z" transform="translate(-213.748 -106.85)" fill="url(#radial-gradient-20)"/>
      <path id="Path_37824" data-name="Path 37824" d="M332.375,211.856H255.228l-41.48,41.48v59.008c0,.723.06,1.433.109,2.144L334.519,211.965C333.806,211.916,333.1,211.856,332.375,211.856ZM307.938,344.219l56.312-56.312V274.33l-69.89,69.889Zm49.148-120.61L225.5,337.057a31.731,31.731,0,0,0,20.12,7.162h12.416L364.25,248.084v-4.353a31.739,31.739,0,0,0-7.164-20.122Z" transform="translate(-213.748 -106.85)" fill="url(#radial-gradient-21)"/>
      <g id="Group_35761" data-name="Group 35761" transform="translate(37.643 86.885)">
        <rect id="Rectangle_1357" data-name="Rectangle 1357" width="75.177" height="14.298" rx="3.547" transform="translate(0 0.001)" fill="url(#radial-gradient-22)"/>
        <path id="Path_37825" data-name="Path 37825" d="M239.575,203.654h60.88a7.15,7.15,0,0,1,7.108,6.753c.008-.133.04-.258.04-.393a7.17,7.17,0,0,0-7.148-7.15h-60.88a7.17,7.17,0,0,0-7.148,7.15c0,.135.032.26.04.393A7.15,7.15,0,0,1,239.575,203.654Z" transform="translate(-232.427 -202.864)" fill="url(#radial-gradient-23)"/>
        <path id="Path_37826" data-name="Path 37826" d="M300.455,213.055h-60.88a7.154,7.154,0,0,1-7.114-6.812c-.006.115-.034.222-.034.339a7.169,7.169,0,0,0,7.148,7.148h60.88a7.169,7.169,0,0,0,7.148-7.148c0-.117-.028-.224-.034-.339A7.154,7.154,0,0,1,300.455,213.055Z" transform="translate(-232.427 -199.432)" fill="url(#radial-gradient-24)"/>
      </g>
      <path id="Path_37827" data-name="Path 37827" d="M283.692,159.75a63.988,63.988,0,0,0-63.915,63.915v25.852a11.084,11.084,0,0,0,22.168,0V223.665a41.75,41.75,0,1,1,83.5,0v25.852a11.084,11.084,0,0,0,22.168,0V223.665a63.988,63.988,0,0,0-63.921-63.915Z" transform="translate(-207.627 -159.75)" fill="url(#radial-gradient-25)"/>
      <path id="Path_37828" data-name="Path 37828" d="M277.391,165.5a51.465,51.465,0,0,0-51.407,51.4v37.754a11.077,11.077,0,0,0,9.659-10.981V217.827a41.75,41.75,0,1,1,83.5,0v25.852A11.077,11.077,0,0,0,328.8,254.66V216.906A51.464,51.464,0,0,0,277.391,165.5Z" transform="translate(-201.326 -153.911)" fill="url(#radial-gradient-26)"/>
      <g id="Group_35762" data-name="Group 35762" transform="translate(12.15 21.46)">
        <path id="Path_37829" data-name="Path 37829" d="M314.272,212.147a41.75,41.75,0,0,0-83.5,0v.707a41.75,41.75,0,1,1,83.5,0Z" transform="translate(-208.609 -170.399)" fill="url(#radial-gradient-27)"/>
        <path id="Path_37830" data-name="Path 37830" d="M230.861,215.027a11.084,11.084,0,0,1-11.084-11.084v.707a11.084,11.084,0,1,0,22.168,0v-.707a11.085,11.085,0,0,1-11.083,11.084Z" transform="translate(-219.777 -136.344)" fill="url(#radial-gradient-28)"/>
        <path id="Path_37831" data-name="Path 37831" d="M283.293,215.027a11.085,11.085,0,0,1-11.084-11.083v.706a11.084,11.084,0,0,0,22.168,0v-.707a11.085,11.085,0,0,1-11.083,11.084Z" transform="translate(-166.546 -136.344)" fill="url(#radial-gradient-28)"/>
      </g>
      <path id="Path_37832" data-name="Path 37832" d="M283.692,159.75a63.988,63.988,0,0,0-63.915,63.915v1.606a63.916,63.916,0,0,1,127.831,0v-1.606a63.988,63.988,0,0,0-63.916-63.915Z" transform="translate(-207.627 -159.75)" fill="url(#radial-gradient-30)"/>
      <g id="Group_35769" data-name="Group 35769" transform="translate(51.229 42.688)">
        <g id="Group_35766" data-name="Group 35766">
          <circle id="Ellipse_233" data-name="Ellipse 233" cx="25.395" cy="25.395" r="25.395" transform="translate(0 0)" fill="url(#radial-gradient-7)"/>
          <g id="Group_35763" data-name="Group 35763" transform="translate(3.053 1.053)">
            <path id="Path_37833" data-name="Path 37833" d="M260.885,184.433a25.219,25.219,0,0,0-3.17-2.011v16.021h3.17Z" transform="translate(-223.393 -180.473)" fill="url(#radial-gradient-8)"/>
            <path id="Path_37834" data-name="Path 37834" d="M257.1,182.086q-.544-.224-1.1-.423v14.318h1.1Z" transform="translate(-225.131 -181.244)" fill="url(#radial-gradient-33)"/>
            <path id="Path_37835" data-name="Path 37835" d="M266.434,192.616a25.468,25.468,0,0,0-6.342-8.541V205.64h6.342Z" transform="translate(-220.98 -178.795)" fill="url(#radial-gradient-34)"/>
            <path id="Path_37836" data-name="Path 37836" d="M247.735,181.739v14.453h.9V181.455C248.329,181.544,248.031,181.64,247.735,181.739Z" transform="translate(-233.526 -181.455)" fill="url(#radial-gradient-35)"/>
            <path id="Path_37837" data-name="Path 37837" d="M248.39,181.956a25.329,25.329,0,0,0-3.172,1.636v13.974h3.172Z" transform="translate(-236.081 -180.946)" fill="url(#radial-gradient-36)"/>
            <path id="Path_37838" data-name="Path 37838" d="M247.024,183.751a25.462,25.462,0,0,0-6.34,7.634v8.778h6.34Z" transform="translate(-240.684 -179.124)" fill="url(#radial-gradient-37)"/>
          </g>
          <circle id="Ellipse_234" data-name="Ellipse 234" cx="25.395" cy="25.395" r="25.395" transform="translate(0 3.279)" fill="url(#radial-gradient-14)"/>
          <path id="Path_37839" data-name="Path 37839" d="M264.565,182.81a25.4,25.4,0,0,1,25.392,25.271v-.127a25.4,25.4,0,1,0-50.795,0,1.084,1.084,0,0,1,0,.127,25.4,25.4,0,0,1,25.4-25.271Z" transform="translate(-239.169 -179.28)" fill="url(#linear-gradient)"/>
          <circle id="Ellipse_235" data-name="Ellipse 235" cx="20.784" cy="20.784" r="20.784" transform="translate(4.612 7.891)" fill="url(#radial-gradient-15)"/>
          <circle id="Ellipse_236" data-name="Ellipse 236" cx="18.676" cy="18.676" r="18.676" transform="translate(6.719 9.998)" fill="none" stroke="#ffe700" stroke-miterlimit="10" stroke-width="1"/>
          <circle id="Ellipse_237" data-name="Ellipse 237" cx="18.676" cy="18.676" r="18.676" transform="translate(6.719 9.998)" fill="none" stroke="#ff7b00" stroke-miterlimit="10" stroke-width="0.5"/>
          <path id="Path_37840" data-name="Path 37840" d="M262.242,185.309a20.78,20.78,0,0,1,20.777,20.55c0-.076.006-.15.006-.229a20.784,20.784,0,0,0-41.568,0c0,.079.006.153.006.232A20.782,20.782,0,0,1,262.242,185.309Z" transform="translate(-236.846 -176.957)" fill="url(#linear-gradient)"/>
          <g id="Group_35764" data-name="Group 35764" transform="translate(18.158 12.975)">
            <path id="Path_37841" data-name="Path 37841" d="M263.4,206.766a6.385,6.385,0,0,1-1.61,4.559,7.717,7.717,0,0,1-3.9,2.261v2.332q0,.692-.036,1.058a2.578,2.578,0,0,1-.234.8,1.16,1.16,0,0,1-.643.619,4.019,4.019,0,0,1-2.4,0,1.1,1.1,0,0,1-.627-.637,3.081,3.081,0,0,1-.214-.8q-.036-.348-.036-1.076v-2.261a8.044,8.044,0,0,1-2.65-1.092,7.089,7.089,0,0,1-1.646-1.35l-.468-.619a2.962,2.962,0,0,1-.752-1.532,3.3,3.3,0,0,1,1.219-2.114,2.121,2.121,0,0,1,1.467-.693,3.414,3.414,0,0,1,2.114,1.276l.177.183a3.19,3.19,0,0,0,2.507,1.384q2.651,0,2.65-2.225,0-.8-1-1.237a14.793,14.793,0,0,0-2.436-.784,20.159,20.159,0,0,1-2.864-.931,5.482,5.482,0,0,1-2.434-2,6.394,6.394,0,0,1,4.117-9.806v-2.041q0-.729.036-1.076a2.858,2.858,0,0,1,.214-.784,1.1,1.1,0,0,1,.645-.619,3.409,3.409,0,0,1,1.217-.183,2.172,2.172,0,0,1,1.451.419,1.493,1.493,0,0,1,.554.9,9.862,9.862,0,0,1,.073,1.384v2.041a8,8,0,0,1,1.826.621,7.086,7.086,0,0,1,1.147.655l.322.292.143.109q.895.84.895,1.35a3.554,3.554,0,0,1-.715,1.677q-.967,1.457-1.971,1.457a2.638,2.638,0,0,1-1.467-.582c-.048-.048-.157-.147-.322-.292a5.387,5.387,0,0,0-.466-.365,2.4,2.4,0,0,0-.681-.272,4.164,4.164,0,0,0-1.108-.129,2.131,2.131,0,0,0-1.292.455,1.416,1.416,0,0,0-.607,1.185,1.558,1.558,0,0,0,.734,1.368,4.389,4.389,0,0,0,1.808.655,18.047,18.047,0,0,1,2.364.548,16.274,16.274,0,0,1,2.364.893,4.2,4.2,0,0,1,1.808,1.8A6.46,6.46,0,0,1,263.4,206.766Z" transform="translate(-248.179 -187.371)" fill="#ffff68"/>
          </g>
          <g id="Group_35765" data-name="Group 35765" transform="translate(18.158 12.975)">
            <path id="Path_37842" data-name="Path 37842" d="M263.4,206.423a6.2,6.2,0,0,1-1.61,4.476,7.737,7.737,0,0,1-3.9,2.221v2.291c0,.453-.012.8-.036,1.038a2.492,2.492,0,0,1-.234.788,1.149,1.149,0,0,1-.643.609,4.1,4.1,0,0,1-2.4,0,1.091,1.091,0,0,1-.627-.627,2.978,2.978,0,0,1-.214-.788c-.024-.228-.036-.578-.036-1.056v-2.221a8.146,8.146,0,0,1-2.65-1.074,7.069,7.069,0,0,1-1.646-1.324l-.468-.609a2.886,2.886,0,0,1-.752-1.5,3.219,3.219,0,0,1,1.219-2.076,2.137,2.137,0,0,1,1.467-.681,3.435,3.435,0,0,1,2.114,1.253l.177.179a3.206,3.206,0,0,0,2.507,1.36q2.651,0,2.65-2.184c0-.524-.335-.931-1-1.217a15.278,15.278,0,0,0-2.436-.77,20.306,20.306,0,0,1-2.864-.913,5.48,5.48,0,0,1-2.434-1.971,6.436,6.436,0,0,1,.357-7.412,6.243,6.243,0,0,1,3.76-2.219v-2q0-.716.036-1.058a2.759,2.759,0,0,1,.214-.77,1.094,1.094,0,0,1,.645-.609,3.465,3.465,0,0,1,1.217-.179,2.194,2.194,0,0,1,1.451.413,1.457,1.457,0,0,1,.554.877,9.51,9.51,0,0,1,.073,1.36v2.005a8.2,8.2,0,0,1,1.826.609,7.08,7.08,0,0,1,1.147.645l.322.286.143.109c.6.55.895.99.895,1.324a3.461,3.461,0,0,1-.715,1.648q-.967,1.43-1.971,1.431a2.66,2.66,0,0,1-1.467-.572c-.048-.046-.157-.143-.322-.286a5.218,5.218,0,0,0-.466-.359,2.481,2.481,0,0,0-.681-.268,4.352,4.352,0,0,0-1.108-.125,2.147,2.147,0,0,0-1.292.447,1.38,1.38,0,0,0-.607,1.163,1.523,1.523,0,0,0,.734,1.344,4.47,4.47,0,0,0,1.808.645,18.2,18.2,0,0,1,2.364.536,16.513,16.513,0,0,1,2.364.879,4.163,4.163,0,0,1,1.808,1.771,6.258,6.258,0,0,1,.727,3.171Z" transform="translate(-248.179 -187.371)" fill="#ff7b00"/>
          </g>
          <text id="_2" data-name="$" transform="translate(17.263 39.469)" fill="#ff7b00" font-size="35" font-family="SegoeUI, Segoe UI" letter-spacing="0.02em"><tspan x="0" y="0">$</tspan></text>
        </g>
        <g id="Group_35767" data-name="Group 35767" transform="translate(31.333 26.404)">
          <path id="Path_37843" data-name="Path 37843" d="M263.373,198.721a2.064,2.064,0,0,0-.79.728,18.125,18.125,0,0,0,.292-2.17,1.734,1.734,0,0,0,1.016-.113,1.9,1.9,0,0,0,.826-.935,1.893,1.893,0,0,0-1.241.06,1.579,1.579,0,0,0-.568.492,21.621,21.621,0,0,0-.012-2.418.346.346,0,1,0-.691.04,20.974,20.974,0,0,1,.014,2.3,1.114,1.114,0,0,0-.085-.3,1.482,1.482,0,0,0-.711-.653,1.5,1.5,0,0,0,.042.967,1.473,1.473,0,0,0,.711.651v-.008a17.431,17.431,0,0,1-.234,1.731,1.6,1.6,0,0,0-.129-.453,2.167,2.167,0,0,0-1.044-.957,2.188,2.188,0,0,0,.06,1.421,2.074,2.074,0,0,0,.919.9,14.585,14.585,0,0,1-.611,1.9,2.2,2.2,0,0,0-.072-.824,2.8,2.8,0,0,0-1.157-1.409,2.818,2.818,0,0,0-.179,1.818,2.688,2.688,0,0,0,1.018,1.316,13.015,13.015,0,0,1-1.068,1.816,2.461,2.461,0,0,0,.032-.969,3.133,3.133,0,0,0-1.1-1.713,3.145,3.145,0,0,0-.431,1.993,2.927,2.927,0,0,0,.875,1.509c-.069.085-.139.169-.208.248a12.125,12.125,0,0,1-1.769,1.636,3.018,3.018,0,0,0,.578-1.808,3.133,3.133,0,0,0-.895-1.834,3.124,3.124,0,0,0-.663,1.925,3.091,3.091,0,0,0,.865,1.806,9.926,9.926,0,0,1-2,1.185.35.35,0,0,0,.145.675.3.3,0,0,0,.1-.022,10.183,10.183,0,0,0,2.261-1.342,2.965,2.965,0,0,0,1.769.57,3.068,3.068,0,0,0,1.814-.9,3.079,3.079,0,0,0-1.91-.675,2.267,2.267,0,0,0-.653.145c.282-.264.566-.548.852-.871.121-.135.242-.278.363-.427a2.949,2.949,0,0,0,1.741.55,3.077,3.077,0,0,0,1.816-.9,3.088,3.088,0,0,0-1.913-.675,2.559,2.559,0,0,0-1.173.4,13.526,13.526,0,0,0,1.239-2.108,2.2,2.2,0,0,0,1.251.371,2.353,2.353,0,0,0,1.389-.685,2.366,2.366,0,0,0-1.461-.518,2.02,2.02,0,0,0-.953.339,15.423,15.423,0,0,0,.842-2.6,2.264,2.264,0,0,0,1.413-.111,2.384,2.384,0,0,0,1.028-1.165A2.352,2.352,0,0,0,263.373,198.721Z" transform="translate(-254.698 -194.035)" fill="#ffff2a"/>
          <path id="Path_37844" data-name="Path 37844" d="M263.379,198.678a2.059,2.059,0,0,0-.792.721,17.775,17.775,0,0,0,.3-2.152,1.747,1.747,0,0,0,1.016-.111,1.915,1.915,0,0,0,.83-.929,1.9,1.9,0,0,0-1.243.062,1.594,1.594,0,0,0-.57.488,21.186,21.186,0,0,0,0-2.4.346.346,0,0,0-.691.042,20.511,20.511,0,0,1,.006,2.279,1.044,1.044,0,0,0-.083-.3.52.52,0,1,0,.038.959v-.01c-.054.6-.135,1.175-.238,1.717a1.553,1.553,0,0,0-.129-.449,2.156,2.156,0,0,0-1.042-.949,2.168,2.168,0,0,0,.056,1.409,2.092,2.092,0,0,0,.919.889,14.7,14.7,0,0,1-.617,1.88,2.161,2.161,0,0,0-.071-.816,2.77,2.77,0,0,0-1.153-1.4,2.767,2.767,0,0,0-.183,1.8,2.653,2.653,0,0,0,1.014,1.3,12.926,12.926,0,0,1-1.072,1.8,2.458,2.458,0,0,0,.036-.961,3.1,3.1,0,0,0-1.1-1.7,3.09,3.09,0,0,0-.437,1.975,2.9,2.9,0,0,0,.871,1.5c-.068.083-.139.167-.21.246a12.216,12.216,0,0,1-1.771,1.624,3,3,0,0,0,.582-1.794,3.1,3.1,0,0,0-.889-1.818,3.091,3.091,0,0,0-.669,1.91,3.048,3.048,0,0,0,.86,1.788,9.9,9.9,0,0,1-2.007,1.175.347.347,0,0,0,.244.649,10.434,10.434,0,0,0,2.265-1.332,2.993,2.993,0,0,0,1.767.564,3.107,3.107,0,0,0,1.818-.891,3.1,3.1,0,0,0-1.911-.669,2.3,2.3,0,0,0-.655.145c.284-.262.57-.544.856-.863.121-.135.242-.276.363-.425a2.97,2.97,0,0,0,1.741.546,3.094,3.094,0,0,0,1.816-.891,3.1,3.1,0,0,0-1.908-.669,2.613,2.613,0,0,0-1.175.4,13.547,13.547,0,0,0,1.245-2.088,2.2,2.2,0,0,0,1.249.365,2.368,2.368,0,0,0,1.391-.681,2.376,2.376,0,0,0-1.461-.51,2.026,2.026,0,0,0-.953.337,15.219,15.219,0,0,0,.848-2.582,2.3,2.3,0,0,0,1.415-.111,2.382,2.382,0,0,0,1.03-1.155A2.38,2.38,0,0,0,263.379,198.678Z" transform="translate(-254.717 -194.035)" fill="#ffb200"/>
        </g>
        <g id="Group_35768" data-name="Group 35768" transform="translate(9.393 26.404)">
          <path id="Path_37845" data-name="Path 37845" d="M245.376,198.721a2.065,2.065,0,0,1,.79.728,18.1,18.1,0,0,1-.292-2.17,1.733,1.733,0,0,1-1.016-.113,1.9,1.9,0,0,1-.826-.935,1.893,1.893,0,0,1,1.241.06,1.579,1.579,0,0,1,.568.492,21.6,21.6,0,0,1,.012-2.418.346.346,0,0,1,.691.04,20.974,20.974,0,0,0-.014,2.3,1.111,1.111,0,0,1,.085-.3,1.482,1.482,0,0,1,.711-.653,1.5,1.5,0,0,1-.042.967,1.473,1.473,0,0,1-.711.651v-.008a17.452,17.452,0,0,0,.234,1.731,1.667,1.667,0,0,1,.129-.453,2.176,2.176,0,0,1,1.046-.957,2.2,2.2,0,0,1-.06,1.421,2.087,2.087,0,0,1-.921.9,14.578,14.578,0,0,0,.611,1.9,2.2,2.2,0,0,1,.073-.824,2.8,2.8,0,0,1,1.157-1.409,2.818,2.818,0,0,1,.179,1.818A2.7,2.7,0,0,1,248,202.8a12.8,12.8,0,0,0,1.066,1.816,2.463,2.463,0,0,1-.032-.969,3.133,3.133,0,0,1,1.1-1.713,3.145,3.145,0,0,1,.431,1.993,2.927,2.927,0,0,1-.875,1.509c.068.085.139.169.21.248a12.019,12.019,0,0,0,1.767,1.636,3.018,3.018,0,0,1-.578-1.808,3.133,3.133,0,0,1,.9-1.834,3.124,3.124,0,0,1,.663,1.925,3.092,3.092,0,0,1-.865,1.806,9.927,9.927,0,0,0,2,1.185.35.35,0,0,1-.145.675.314.314,0,0,1-.1-.022,10.182,10.182,0,0,1-2.261-1.342,2.965,2.965,0,0,1-1.769.57,3.076,3.076,0,0,1-1.814-.9,3.079,3.079,0,0,1,1.91-.675,2.3,2.3,0,0,1,.655.145c-.284-.264-.568-.548-.854-.871-.119-.135-.242-.278-.363-.427a2.95,2.95,0,0,1-1.741.55,3.077,3.077,0,0,1-1.816-.9,3.088,3.088,0,0,1,1.912-.675,2.558,2.558,0,0,1,1.173.4,13.53,13.53,0,0,1-1.239-2.108,2.2,2.2,0,0,1-1.251.371,2.353,2.353,0,0,1-1.388-.685,2.366,2.366,0,0,1,1.461-.518,2.02,2.02,0,0,1,.953.339,15.428,15.428,0,0,1-.842-2.6,2.264,2.264,0,0,1-1.413-.111,2.384,2.384,0,0,1-1.028-1.165,2.352,2.352,0,0,1,1.554.076Z" transform="translate(-243.83 -194.035)" fill="#ffff2a"/>
          <path id="Path_37846" data-name="Path 37846" d="M245.382,198.678a2.059,2.059,0,0,1,.792.721,17.769,17.769,0,0,1-.3-2.152,1.747,1.747,0,0,1-1.016-.111,1.905,1.905,0,0,1-.828-.929,1.9,1.9,0,0,1,1.241.062,1.6,1.6,0,0,1,.57.488,21.186,21.186,0,0,1,0-2.4.346.346,0,0,1,.691.042,20.519,20.519,0,0,0-.006,2.279,1.045,1.045,0,0,1,.083-.3.52.52,0,1,1-.038.959v-.01c.054.6.135,1.175.238,1.717a1.623,1.623,0,0,1,.129-.449,2.156,2.156,0,0,1,1.042-.949,2.168,2.168,0,0,1-.056,1.409,2.089,2.089,0,0,1-.917.889,14.392,14.392,0,0,0,.615,1.88,2.162,2.162,0,0,1,.071-.816,2.77,2.77,0,0,1,1.153-1.395,2.766,2.766,0,0,1,.183,1.8,2.653,2.653,0,0,1-1.014,1.3,12.931,12.931,0,0,0,1.072,1.8,2.423,2.423,0,0,1-.034-.961,3.088,3.088,0,0,1,1.1-1.7,3.09,3.09,0,0,1,.437,1.975,2.9,2.9,0,0,1-.871,1.5c.068.083.139.167.21.246A12.216,12.216,0,0,0,251.7,207.2a3,3,0,0,1-.582-1.794,3.1,3.1,0,0,1,.889-1.818,3.091,3.091,0,0,1,.669,1.91,3.048,3.048,0,0,1-.86,1.788,9.906,9.906,0,0,0,2.007,1.175.347.347,0,0,1-.244.649,10.431,10.431,0,0,1-2.265-1.332,2.983,2.983,0,0,1-1.767.564,3.107,3.107,0,0,1-1.818-.891,3.1,3.1,0,0,1,1.91-.669,2.3,2.3,0,0,1,.655.145c-.284-.262-.57-.544-.856-.863-.121-.135-.242-.276-.363-.425a2.965,2.965,0,0,1-1.741.546,3.093,3.093,0,0,1-1.816-.891,3.1,3.1,0,0,1,1.908-.669,2.613,2.613,0,0,1,1.175.4,13.546,13.546,0,0,1-1.245-2.088,2.191,2.191,0,0,1-1.249.365,2.368,2.368,0,0,1-1.391-.681,2.376,2.376,0,0,1,1.461-.51,2.026,2.026,0,0,1,.953.337,15.211,15.211,0,0,1-.848-2.582,2.294,2.294,0,0,1-1.413-.111,2.378,2.378,0,0,1-1.032-1.155,2.38,2.38,0,0,1,1.545.078Z" transform="translate(-243.824 -194.035)" fill="#ffb200"/>
        </g>
      </g>
    </g>
  </g>
</svg>
