<svg id="money-bag" xmlns="http://www.w3.org/2000/svg" width="21.203" height="21.199" viewBox="0 0 21.203 21.199">
  <path id="Path_37984" data-name="Path 37984" d="M151.863,244.485a.622.622,0,0,1,.621.621.621.621,0,1,0,1.243,0,1.866,1.866,0,0,0-1.243-1.754v-.731a.621.621,0,1,0-1.243,0v.731a1.863,1.863,0,0,0,.621,3.62.621.621,0,1,1-.621.621.621.621,0,0,0-1.243,0,1.866,1.866,0,0,0,1.243,1.754v.731a.621.621,0,0,0,1.243,0v-.731a1.863,1.863,0,0,0-.621-3.62.621.621,0,0,1,0-1.243Z" transform="translate(-143.786 -231.98)"/>
  <path id="Path_37985" data-name="Path 37985" d="M20.576,14.985H15.732a11.252,11.252,0,0,0-3.338-4.971c-1.222-1.216-2.216-2.206-2.419-3.8h.585a.621.621,0,1,0,0-1.243H10a9,9,0,0,1,2.246-3.908h0A.621.621,0,0,0,11.8,0,3.569,3.569,0,0,0,9.6.728a2.349,2.349,0,0,1-1.519.517A2.349,2.349,0,0,1,6.553.725,3.569,3.569,0,0,0,4.346,0a.622.622,0,0,0-.439,1.06h0A8.987,8.987,0,0,1,6.153,4.968H5.589a.621.621,0,1,0,0,1.243h.585C5.969,7.8,4.979,8.789,3.761,10a14.409,14.409,0,0,0-2.523,3.05A9.878,9.878,0,0,0,0,18.093c0,.041,0,.082,0,.122A3.083,3.083,0,0,0,3.107,21.2h17.47a.621.621,0,0,0,.621-.621V15.606a.621.621,0,0,0-.623-.621Zm-.621,2.485H13.661V16.227h6.293ZM8.072,2.485A3.4,3.4,0,0,0,9.94,1.973a7.623,7.623,0,0,0-1.2,3H7.408a7.623,7.623,0,0,0-1.207-3,3.4,3.4,0,0,0,1.871.512ZM1.242,18.2v-.1c0-3.844,1.724-5.555,3.391-7.212C5.9,9.623,7.2,8.323,7.42,6.21H8.726c.219,2.12,1.523,3.421,2.792,4.683a10.5,10.5,0,0,1,2.911,4.093H13.041a.621.621,0,0,0-.621.621v4.347H3.107A1.836,1.836,0,0,1,1.242,18.2Zm18.713,1.76H13.661V18.713h6.293Z" transform="translate(0.004 0)"/>
</svg>
