<svg xmlns="http://www.w3.org/2000/svg" width="21" height="21" viewBox="0 0 21 21">
  <g id="Layer_2" transform="translate(-2 -2)">
    <g id="Group_35735" data-name="Group 35735" transform="translate(2 2)">
      <path id="Path_37772" data-name="Path 37772" d="M12.5,2A10.5,10.5,0,1,0,23,12.5,10.5,10.5,0,0,0,12.5,2Zm0,19.25a8.75,8.75,0,1,1,8.75-8.75,8.75,8.75,0,0,1-8.75,8.75Z" transform="translate(-2 -2)" fill="#00a9c4"/>
      <path id="Path_37773" data-name="Path 37773" d="M10.19,4.589A3.5,3.5,0,0,0,6.13,6.882a.862.862,0,0,0,.56,1.1A.886.886,0,0,0,7.79,7.4a1.776,1.776,0,0,1,2-1.12A1.752,1.752,0,0,1,11.01,8.21,1.716,1.716,0,0,1,9.19,9.557a.873.873,0,0,0-.98.875l-.018,2.73a.866.866,0,0,0,.875.875h0a.867.867,0,0,0,.875-.875l.018-1.908a3.538,3.538,0,0,0,2.783-2.747A3.509,3.509,0,0,0,10.19,4.589Z" transform="translate(1.063 -0.127)" fill="#00a9c4"/>
      <path id="Path_37774" data-name="Path 37774" d="M8.193,10.39H8.175a.9.9,0,0,0-.875.875v.192a.826.826,0,0,0,.857.805h.018a.933.933,0,0,0,.875-.91v-.14A.84.84,0,0,0,8.193,10.39Z" transform="translate(1.975 4.292)" fill="#00a9c4"/>
    </g>
  </g>
</svg>
