<svg xmlns="http://www.w3.org/2000/svg" width="16" height="16" viewBox="0 0 16 16">
  <g id="Layer_4" data-name="Layer 4" transform="translate(-1 -1)">
    <path id="Path_37921" data-name="Path 37921" d="M9,17a8,8,0,1,1,8-8A8,8,0,0,1,9,17ZM9,2.067A6.933,6.933,0,1,0,15.933,9,6.933,6.933,0,0,0,9,2.067Z" fill="#0864b1"/>
    <rect id="Rectangle_1379" data-name="Rectangle 1379" width="2" height="5" transform="translate(8 8)" fill="#0864b1"/>
    <path id="Path_37922" data-name="Path 37922" d="M15.067,10.133a1.067,1.067,0,1,1,1.067-1.067,1.067,1.067,0,0,1-1.067,1.067ZM15.067,9.067Z" transform="translate(-6.067 -3.267)" fill="#0864b1"/>
  </g>
</svg>
