<svg xmlns="http://www.w3.org/2000/svg" width="20" height="11.249" viewBox="0 0 20 11.249">
  <path id="Path_37942" data-name="Path 37942" d="M17.071,114.949A10,10,0,0,0,0,122.02v1.226H7.625l.047-.535a2.335,2.335,0,0,1,2.695-2.1l-.953,1.316v1.342h1.172v-.962l.876-1.211c.041.033.081.067.12.1a2.331,2.331,0,0,1,.746,1.513l.047.535H20V122.02a9.935,9.935,0,0,0-2.929-7.071Zm1.757,7.125H13.406a3.5,3.5,0,0,0-1.03-1.737c-.073-.067-.149-.13-.226-.191l2.453-3.389-.949-.687-2.547,3.519a3.511,3.511,0,0,0-4.513,2.486H1.172v-.054a8.829,8.829,0,0,1,17.657,0Z" transform="translate(0 -112.02)"/>
</svg>
