<svg xmlns="http://www.w3.org/2000/svg" width="15.889" height="15.886" viewBox="0 0 15.889 15.886">
  <path id="iconfinder_Key_728977" d="M14.4.993a.5.5,0,0,1,.351.848L14.2,2.4l-.291.291V4.966h-1.99V6.953H9.932V8.939H8.618l.241,1.19a4.044,4.044,0,0,1,.08.8A3.973,3.973,0,1,1,4.966,6.953a3.911,3.911,0,0,1,1.821.467l.646.338.515-.516,6.1-6.1A.5.5,0,0,1,14.4.993M4.966,12.912A1.986,1.986,0,1,0,2.98,10.926a1.986,1.986,0,0,0,1.986,1.986M14.4,0a1.485,1.485,0,0,0-1.053.437l-6.1,6.1a4.9,4.9,0,0,0-2.28-.579A4.964,4.964,0,1,0,9.832,9.932h1.093V7.946h1.986V5.959H14.9V3.1l.557-.557A1.49,1.49,0,0,0,14.4,0ZM4.966,11.919a.993.993,0,1,1,.993-.993.993.993,0,0,1-.993.993Z" transform="translate(-0.004 0)" fill="#00a9c4"/>
</svg>
