<svg xmlns="http://www.w3.org/2000/svg" width="17.5" height="21" viewBox="0 0 17.5 21">
  <g id="padlock" transform="translate(-42.667)">
    <g id="Group_35730" data-name="Group 35730" transform="translate(42.667)">
      <g id="Group_35729" data-name="Group 35729">
        <path id="Path_37770" data-name="Path 37770" d="M57.542,7V6.125a6.125,6.125,0,1,0-12.25,0V7a2.628,2.628,0,0,0-2.625,2.625v8.75A2.628,2.628,0,0,0,45.292,21h12.25a2.628,2.628,0,0,0,2.625-2.625V9.625A2.628,2.628,0,0,0,57.542,7Zm-10.5-.875a4.375,4.375,0,0,1,8.75,0V7h-8.75Zm11.375,12.25a.876.876,0,0,1-.875.875H45.292a.876.876,0,0,1-.875-.875V9.625a.876.876,0,0,1,.875-.875h12.25a.876.876,0,0,1,.875.875Z" transform="translate(-42.667)" fill="#00a9c4"/>
      </g>
    </g>
    <g id="Group_35732" data-name="Group 35732" transform="translate(48.792 10.062)">
      <g id="Group_35731" data-name="Group 35731">
        <path id="Path_37771" data-name="Path 37771" d="M194.625,245.333a2.619,2.619,0,0,0-.875,5.089V251.9a.875.875,0,0,0,1.75,0v-1.474a2.619,2.619,0,0,0-.875-5.089Zm0,3.5a.875.875,0,1,1,.875-.875.875.875,0,0,1-.875.875Z" transform="translate(-192 -245.333)" fill="#00a9c4"/>
      </g>
    </g>
  </g>
</svg>
