<svg xmlns="http://www.w3.org/2000/svg" width="266.827" height="72.065" viewBox="0 0 266.827 72.065">
  <g id="Group_35717" data-name="Group 35717" transform="translate(-147.173 -65)">
    <text id="Algo_Logic" data-name="Algo Logic" transform="translate(230 111.631)" fill="#fff" font-size="30" font-family="Poppins-Medium, Poppins" font-weight="500" letter-spacing="0.05em"><tspan x="0" y="0">Algo </tspan><tspan y="0" font-family="Poppins-Light, Poppins" font-weight="300" letter-spacing="0.19em">Logic</tspan></text>
    <g id="Group_35704" data-name="Group 35704" transform="translate(147.167 65)">
      <path id="Path_57" data-name="Path 57" d="M157.657,83.2l2.087,3.614L166.6,98.682h1.192c.763,0,1.529,0,2.294.018L157.657,77.172l-13.567,23.5c1.259-.223,2.54-.429,3.832-.615l7.646-13.244Z" transform="translate(-119.254 -72.353)" fill="none"/>
      <path id="Path_59" data-name="Path 59" d="M150.489,80.751l7.558,13.093q1.28-.024,2.573-.022,3.318,0,6.543.146l-16.674-28.88L132.167,96.822c3.182-.726,6.557-1.333,10.086-1.807ZM136.922,93.406l13.567-23.5L162.914,91.43c-.765-.013-1.531-.018-2.294-.018h-1.192l-6.853-11.871-2.087-3.614L148.4,79.546,140.754,92.79C139.461,92.977,138.181,93.183,136.922,93.406Z" transform="translate(-112.086 -65.088)" fill="#fff"/>
      <path id="Path_60" data-name="Path 60" d="M108.979,183.1c-9.45-4.153-15.225-9.71-15.225-15.816A10.831,10.831,0,0,1,95.6,161.4h53.7l-9.783-16.945c3.722-.309,7.576-.472,11.524-.472a136.964,136.964,0,0,1,15.349.847c-.281-.091-.571-.178-.858-.266.286.089.577.175.858.266.328.037.654.075.98.114q-1.292-.327-2.629-.625h0a125.721,125.721,0,0,0-26.923-2.808h-.174q-3.336,0-6.571.154-1.077.051-2.142.118h0a118.68,118.68,0,0,0-18.96,2.667q-.746.171-1.478.351a79.1,79.1,0,0,0-9.458,2.927c-10.61,4.073-17.217,9.809-17.217,16.164C81.812,172.053,92.7,179.193,108.979,183.1Zm22.06-37.655,4.69,8.125h-31c6.562-3.66,15.691-6.514,26.31-8.123Z" transform="translate(-81.812 -111.035)" fill="#fff"/>
    </g>
  </g>
</svg>
