<svg xmlns="http://www.w3.org/2000/svg" width="14.765" height="10.476" viewBox="0 0 14.765 10.476">
  <g id="danger" transform="translate(0 -74.45)">
    <path id="Path_37961" data-name="Path 37961" d="M13.9,74.45h-.865a.867.867,0,0,0-.841.663H2.572a.867.867,0,0,0-.841-.663H.865A.866.866,0,0,0,0,75.315v3.86a.866.866,0,0,0,.865.865H1.73a.867.867,0,0,0,.841-.663H5.708l-2.836,4.9a.433.433,0,0,0,.374.649H11.52a.433.433,0,0,0,.374-.649l-2.836-4.9H12.2a.867.867,0,0,0,.841.663H13.9a.866.866,0,0,0,.865-.865v-3.86a.866.866,0,0,0-.865-.865ZM1.73,79.175H.865v-3.86H1.73Zm.865-.663V75.979H7.067c.011.014.38.4.38.4L6.209,78.512ZM4,84.057l3.386-5.845,3.386,5.845Zm3.882-6.715.482-.811a.433.433,0,0,0-.062-.523l-.028-.029h3.9v2.533H8.557ZM13.9,79.175h-.865v-3.86H13.9Z" fill-rule="evenodd"/>
    <path id="Path_37962" data-name="Path 37962" d="M242.321,264.383v1.038a.433.433,0,1,0,.865,0v-1.038a.433.433,0,1,0-.865,0Z" transform="translate(-235.332 -184.035)" fill-rule="evenodd"/>
    <path id="Path_37963" data-name="Path 37963" d="M241.429,354.45a.433.433,0,1,0,.433.433.433.433,0,0,0-.433-.433Z" transform="translate(-234.046 -271.925)" fill-rule="evenodd"/>
  </g>
</svg>
