<svg id="shield" xmlns="http://www.w3.org/2000/svg" width="71.648" height="91.279" viewBox="0 0 71.648 91.279">
  <g id="Group_35898" data-name="Group 35898" transform="translate(1.337 3.35)">
    <g id="Group_35897" data-name="Group 35897" transform="translate(0 0)">
      <g id="Group_35896" data-name="Group 35896">
        <g id="Group_35892" data-name="Group 35892" transform="translate(0 5.312)">
          <g id="Group_35891" data-name="Group 35891" transform="translate(0 0)">
            <path id="Path_37966" data-name="Path 37966" d="M130.118,60.434,97.785,48.718a2.151,2.151,0,0,0-1.466,0L63.985,60.434a2.149,2.149,0,0,0-1.419,2.015c-.018,7.419,1.681,40.632,31.935,66.476a3.921,3.921,0,0,0,5.1,0c30.256-25.846,31.953-59.057,31.935-66.476A2.149,2.149,0,0,0,130.118,60.434Z" transform="translate(-62.566 -48.589)" fill="#a8e7ef"/>
            <path id="Path_37967" data-name="Path 37967" d="M258.589,62.453c.019,7.419-1.681,40.632-31.935,66.475a3.921,3.921,0,0,1-5.1,0c-.064-.054-.127-.107-.189-.164,27.741-25.471,29.34-56.961,29.323-64.16a2.151,2.151,0,0,0-1.418-2.016L217.185,50.961l6.186-2.242a2.176,2.176,0,0,1,1.467,0l32.333,11.72a2.148,2.148,0,0,1,1.418,2.013Z" transform="translate(-189.619 -48.591)" fill="#70d9e6"/>
            <path id="Path_37968" data-name="Path 37968" d="M125.463,153.606A83.623,83.623,0,0,1,97.142,96.341l28.321-10.263,28.328,10.265a82.184,82.184,0,0,1-3.216,18.027,83.5,83.5,0,0,1-9.4,20.816,85.62,85.62,0,0,1-15.709,18.42Z" transform="translate(-90.978 -79.395)" fill="#31a7fb"/>
            <path id="Path_37969" data-name="Path 37969" d="M241.475,96.346a82.2,82.2,0,0,1-3.216,18.026,83.564,83.564,0,0,1-9.4,20.817,85.622,85.622,0,0,1-15.707,18.42q-.691-.613-1.362-1.235a87.9,87.9,0,0,0,18.246-33.139,87,87,0,0,0,3.4-19.064L203.849,89.45l9.3-3.37Z" transform="translate(-178.661 -79.396)" fill="#1c96f9"/>
          </g>
        </g>
        <g id="Group_35893" data-name="Group 35893" transform="translate(1.677)">
          <circle id="Ellipse_276" data-name="Ellipse 276" cx="4.419" cy="4.419" r="4.419" transform="translate(0 0)" fill="#64b9fc"/>
          <path id="Path_37970" data-name="Path 37970" d="M90.848,23.214a4.418,4.418,0,0,1-6.661,3.809,3.911,3.911,0,0,0,0-7.619,4.419,4.419,0,0,1,6.659,3.81Z" transform="translate(-82.012 -18.794)" fill="#31a7fb"/>
        </g>
        <g id="Group_35894" data-name="Group 35894" transform="translate(46.857 9.578)">
          <path id="Path_37971" data-name="Path 37971" d="M325.4,77.947a5.4,5.4,0,1,1,5.4,5.4,5.4,5.4,0,0,1-5.4-5.4" transform="translate(-325.4 -72.539)" fill="#bcea73"/>
          <path id="Path_37972" data-name="Path 37972" d="M340.337,82.6a4.78,4.78,0,0,0,0-9.313,5.4,5.4,0,1,1,0,9.313" transform="translate(-337.673 -72.538)" fill="#99d53b"/>
        </g>
        <g id="Group_35895" data-name="Group 35895" transform="translate(58.481 68.826)">
          <circle id="Ellipse_277" data-name="Ellipse 277" cx="4.439" cy="4.439" r="4.439" transform="translate(0 0)" fill="#a8e7ef"/>
          <path id="Path_37973" data-name="Path 37973" d="M409.552,409.283a4.438,4.438,0,0,1-6.691,3.827,3.928,3.928,0,0,0,0-7.652,4.438,4.438,0,0,1,6.689,3.826Z" transform="translate(-400.673 -404.844)" fill="#70d9e6"/>
        </g>
      </g>
    </g>
  </g>
  <g id="Group_35899" data-name="Group 35899" transform="translate(0 0)">
    <path id="Path_37974" data-name="Path 37974" d="M123.542,96.882a1.337,1.337,0,0,0-1.6,1.005A89.245,89.245,0,0,1,92.57,146.124a2.584,2.584,0,0,1-3.362,0,88.765,88.765,0,0,1-26.922-39.559,83.184,83.184,0,0,1-4.545-25.9.816.816,0,0,1,.537-.762l18.094-6.56a1.337,1.337,0,1,0-.911-2.514L57.367,77.388a3.5,3.5,0,0,0-2.3,3.267,85.956,85.956,0,0,0,4.686,26.759,91.4,91.4,0,0,0,27.721,40.741,5.259,5.259,0,0,0,6.836,0A91.9,91.9,0,0,0,124.55,98.481a1.337,1.337,0,0,0-1.008-1.6Z" transform="translate(-55.066 -58.137)"/>
    <path id="Path_37975" data-name="Path 37975" d="M155.124,56.285a3.5,3.5,0,0,0-2.3-3.269l-9.5-3.443a6.734,6.734,0,0,0-9.423-3.414L120.488,41.3a3.493,3.493,0,0,0-2.377,0l-8.058,2.92a1.337,1.337,0,1,0,.911,2.514l8.058-2.92a.814.814,0,0,1,.555,0L131.6,48.172a6.7,6.7,0,0,0-1.256,3.521l-10.59-3.839a1.336,1.336,0,0,0-.912,0L90.524,58.117a1.337,1.337,0,0,0-.877,1.331,83.477,83.477,0,0,0,5.409,24.634,1.337,1.337,0,0,0,2.5-.957,81.343,81.343,0,0,1-5.172-22.833L119.3,50.535l11.568,4.192a6.733,6.733,0,0,0,9.289,3.366l6.067,2.2a81.453,81.453,0,0,1-3.1,16.733,82.161,82.161,0,0,1-9.252,20.482A84.169,84.169,0,0,1,119.3,114.842a83.048,83.048,0,0,1-19.21-25.791A1.337,1.337,0,1,0,97.679,90.2a85.847,85.847,0,0,0,20.733,27.439,1.337,1.337,0,0,0,1.775,0,87.072,87.072,0,0,0,15.95-18.707,84.832,84.832,0,0,0,9.554-21.149,83.437,83.437,0,0,0,3.275-18.329,1.337,1.337,0,0,0-.877-1.335L142.506,56.1a6.7,6.7,0,0,0,1.3-3.509l8.114,2.941a.816.816,0,0,1,.537.761,72.768,72.768,0,0,1-.882,10.845,1.337,1.337,0,1,0,2.644.4,75.6,75.6,0,0,0,.912-11.257ZM133.012,52.1a4.066,4.066,0,1,1,4.066,4.066,4.066,4.066,0,0,1-4.066-4.066Z" transform="translate(-83.479 -33.765)"/>
    <path id="Path_37976" data-name="Path 37976" d="M227.409,273.675a5,5,0,0,1,6.144.018,1.337,1.337,0,0,0,1.737-2.034,7.669,7.669,0,0,0-9.6-.029,1.338,1.338,0,0,0,1.724,2.047Z" transform="translate(-194.877 -221.828)"/>
    <path id="Path_37977" data-name="Path 37977" d="M199.835,238.657h.007a1.337,1.337,0,1,0,.006-2.674h-.026a1.337,1.337,0,0,0-.006,2.674Z" transform="translate(-172.916 -193.912)"/>
    <path id="Path_37978" data-name="Path 37978" d="M299.745,238.657h.008a1.337,1.337,0,0,0,.006-2.674h-.028a1.337,1.337,0,0,0-.006,2.674Z" transform="translate(-255.014 -193.912)"/>
    <path id="Path_37979" data-name="Path 37979" d="M407.787,55.189a1.337,1.337,0,0,0,1.891,0l.723-.723.723.723a1.337,1.337,0,0,0,1.891-1.891l-.723-.723.723-.723a1.337,1.337,0,0,0-1.891-1.891l-.723.723-.723-.723a1.337,1.337,0,0,0-1.891,1.891l.723.723-.723.723a1.337,1.337,0,0,0,0,1.891Z" transform="translate(-344.582 -40.732)"/>
    <path id="Path_37980" data-name="Path 37980" d="M70.23,22.809a5.757,5.757,0,1,0-5.757-5.757A5.757,5.757,0,0,0,70.23,22.809Zm0-8.84a3.082,3.082,0,1,1-3.082,3.082A3.083,3.083,0,0,1,70.23,13.97Z" transform="translate(-62.796 -9.281)"/>
    <path id="Path_37981" data-name="Path 37981" d="M388.868,397.344a5.775,5.775,0,1,0,5.775,5.775A5.775,5.775,0,0,0,388.868,397.344Zm0,8.879a3.1,3.1,0,1,1,3.1-3.1A3.1,3.1,0,0,1,388.868,406.223Z" transform="translate(-324.61 -326.506)"/>
    <path id="Path_37982" data-name="Path 37982" d="M140.268,5.62a1.337,1.337,0,0,0,1.891,0l.723-.723.723.723A1.337,1.337,0,0,0,145.5,3.728l-.723-.723.723-.723A1.337,1.337,0,1,0,143.605.392l-.723.723L142.16.392a1.337,1.337,0,1,0-1.891,1.891l.723.723-.723.723a1.337,1.337,0,0,0,0,1.891Z" transform="translate(-124.757 0)"/>
    <path id="Path_37983" data-name="Path 37983" d="M81.215,376.456a1.337,1.337,0,0,0-1.891,0l-.723.723-.723-.723a1.337,1.337,0,0,0-1.891,1.891l.723.723-.723.723a1.337,1.337,0,1,0,1.891,1.891l.723-.723.723.723a1.337,1.337,0,0,0,1.891-1.891l-.723-.723.723-.723a1.337,1.337,0,0,0,0-1.891Z" transform="translate(-71.935 -309.018)"/>
  </g>
</svg>
