<svg xmlns="http://www.w3.org/2000/svg" width="40" height="40" viewBox="0 0 40 40">
  <g id="Group_36" data-name="Group 36" transform="translate(-8462 64)">
    <g id="Group_35" data-name="Group 35">
      <circle id="Ellipse_1" data-name="Ellipse 1" cx="20" cy="20" r="20" transform="translate(8462 -64)" fill="#5f83cf"/>
      <g id="Icons" transform="translate(8468.743 -67.36)">
        <g id="Group_35721" data-name="Group 35721" transform="translate(-8 -6)">
          <g id="Group_35719" data-name="Group 35719" transform="translate(5.501 9.913)">
            <path id="Path_37761" data-name="Path 37761" d="M30.488,25.227c.152,2.349.246,5.986-.038,6.138-.492.227-3.2-1.591-3.2-1.591l.4-5.481" transform="translate(-0.643 -9.792)" fill="#385c9b"/>
            <path id="Path_37762" data-name="Path 37762" d="M13.2,24.438a18.9,18.9,0,0,1,17.6-7.664c.644.057,1.231.057,1.572.644.057.114,1.231,1.137,1.231,1.155H30.329l-.682.606L32.64,20.96c-.663.17-2.368.72-2.368.72l-1.735,2.069L28.514,26l2.554,1.138c.114,0,.474-1.174.474-1.174l4-2.384c.071,0,.376,3.364.376,3.364a8.16,8.16,0,0,0,1.739-.79c-.215.8-1.724,3.883-1.724,3.883L34.1,31.89l.53.909L27.1,36.716a1.117,1.117,0,0,0-.694.7c-.3,1.137.568,2.841.682,3.2.114.341-.909,1.383-1,1.44a25.631,25.631,0,0,1-2.33-1.155s-4.916-4.548-5.209-9.417l1.609-5.6-3.5-1.087s-2.826-.277-3.451-.368" transform="translate(-13.203 -16.637)" fill="#385c9b"/>
            <path id="Path_37763" data-name="Path 37763" d="M24.014,30.149s1.814.188,2.159.188,1.376-1.345,1.376-1.345-.469-.876-.751-.907-3.253.407-3.253.407Z" transform="translate(-3.955 -6.403)" fill="#385c9b"/>
            <path id="Path_37764" data-name="Path 37764" d="M22.614,29.172s2.328,2.316,2.582,2.454-.245,1.424-.245,1.424l-1.6,1.874L21.612,31.13a18.42,18.42,0,0,0,1-1.958Z" transform="translate(-5.681 -5.429)" fill="#385c9b"/>
            <path id="Path_37765" data-name="Path 37765" d="M27.469,32.574V31.206l5.681-.672s-2.18,6.47-6.934,7.49l-2.922-1.53Z" transform="translate(-4.179 -4.211)" fill="#385c9b"/>
          </g>
          <path id="Path_37766" data-name="Path 37766" d="M36.2,28.289c0,.53-.019,1.042-.057,1.553H30.328a3.693,3.693,0,0,1-3.693-3.694V23.212c0,1.212,1.492.775,2.4,1.457.606.455.322.589,1.155.589l5.953,1.648C36.181,27.361,36.2,27.815,36.2,28.289Z" transform="translate(4.308 -0.845)" opacity="0.1"/>
        </g>
      </g>
    </g>
  </g>
</svg>
