<svg xmlns="http://www.w3.org/2000/svg" width="317.502" height="549.155" viewBox="0 0 317.502 549.155">
  <path id="Subtraction_1" data-name="Subtraction 1" d="M308.405,584.319a6.1,6.1,0,1,1,4.607-2.1A6.1,6.1,0,0,1,308.405,584.319Zm23.382-26.907a6.1,6.1,0,1,1,4.609-2.1A6.094,6.094,0,0,1,331.787,557.412Zm-26.912-23.384A6.108,6.108,0,0,1,301,532.637v-9.424a6.1,6.1,0,1,1,3.875,10.815Zm50.3-3.537a6.1,6.1,0,1,1,4.608-2.1A6.1,6.1,0,0,1,355.176,530.49Zm-26.912-23.384a6.1,6.1,0,1,1,4.608-2.1A6.1,6.1,0,0,1,328.264,507.106Zm50.295-3.529a6.1,6.1,0,1,1,4.61-2.1A6.1,6.1,0,0,1,378.559,503.578Zm-77.21-19.856c-.115,0-.233,0-.35-.01v-12.18c.126-.007.246-.01.357-.01a6.1,6.1,0,1,1-.007,12.2Zm50.3-3.528a6.1,6.1,0,1,1,4.609-2.1A6.1,6.1,0,0,1,351.647,480.194Zm50.3-3.528a6.1,6.1,0,1,1,4.609-2.1A6.1,6.1,0,0,1,401.943,476.666Zm-77.21-19.857a6.1,6.1,0,1,1,4.609-2.1A6.1,6.1,0,0,1,324.732,456.809Zm50.3-3.527a6.1,6.1,0,1,1,4.608-2.1A6.107,6.107,0,0,1,375.031,453.282Zm50.295-3.525a6.1,6.1,0,1,1,4.61-2.1A6.095,6.095,0,0,1,425.326,449.757ZM301,432.536V422.116a6.141,6.141,0,0,1,.823.6,6.105,6.105,0,0,1-.822,9.816Zm47.116-2.64a6.1,6.1,0,1,1,4.609-2.1A6.105,6.105,0,0,1,348.116,429.9Zm50.3-3.524a6.1,6.1,0,1,1,4.609-2.1A6.1,6.1,0,0,1,398.413,426.372Zm50.3-3.53a6.1,6.1,0,1,1,4.606-2.1,5.91,5.91,0,0,1-.9.846A6.053,6.053,0,0,1,448.713,422.842ZM321.2,406.515a6.1,6.1,0,1,1,4.608-2.1A6.1,6.1,0,0,1,321.2,406.515Zm50.295-3.528a6.1,6.1,0,1,1,4.609-2.1A6.1,6.1,0,0,1,371.5,402.987Zm50.3-3.527a6.107,6.107,0,0,1-5.323-9.1,6.268,6.268,0,0,1,.715-1.008A6.1,6.1,0,1,1,421.8,399.46Zm50.3-3.53a6.1,6.1,0,1,1,4.608-2.1A6.1,6.1,0,0,1,472.1,395.93ZM344.586,379.6a6.1,6.1,0,1,1,4.61-2.1A6.1,6.1,0,0,1,344.586,379.6Zm50.287-3.517a6.1,6.1,0,0,1-5.309-9.109,6.239,6.239,0,0,1,.713-1.009,6.1,6.1,0,1,1,4.6,10.118Zm50.311-3.543a6.1,6.1,0,1,1,4.608-2.1A6.105,6.105,0,0,1,445.183,372.543Zm50.3-3.53a6.1,6.1,0,1,1,4.609-2.1A6.111,6.111,0,0,1,495.479,369.013ZM317.672,356.222a6.117,6.117,0,1,1,1.583-.21A6.1,6.1,0,0,1,317.672,356.222Zm50.306-3.529a6.105,6.105,0,0,1-5.323-9.1,5.842,5.842,0,0,1,.7-1l0,0h0l0,0a6.1,6.1,0,1,1,9.215,8.007,6.21,6.21,0,0,1-.9.848A6.058,6.058,0,0,1,367.978,352.693Zm50.289-3.535a6.1,6.1,0,1,1,4.609-2.1A6.1,6.1,0,0,1,418.267,349.158Zm50.3-3.529a6.1,6.1,0,1,1,4.608-2.1A6.11,6.11,0,0,1,468.567,345.629Zm50.3-3.527a6.1,6.1,0,1,1,4.609-2.1A6.11,6.11,0,0,1,518.862,342.1Zm-177.8-12.792a6.113,6.113,0,1,1,1.579-.209A6.085,6.085,0,0,1,341.058,329.31Zm50.3-3.534a6.1,6.1,0,1,1,4.607-2.1A6.1,6.1,0,0,1,391.356,325.776Zm50.3-3.531a6.1,6.1,0,1,1,4.609-2.1A6.11,6.11,0,0,1,441.652,322.245Zm50.3-3.527a6.1,6.1,0,1,1,4.609-2.1A6.109,6.109,0,0,1,491.949,318.718Zm50.3-3.527a6.1,6.1,0,1,1,4.608-2.1A6.1,6.1,0,0,1,542.247,315.191Zm-228.1-9.27a6.107,6.107,0,0,1-5.326-9.1,6.275,6.275,0,0,1,.715-1.008,6.1,6.1,0,1,1,9.215,8.007,5.988,5.988,0,0,1-.9.847A6.058,6.058,0,0,1,314.149,305.922Zm50.293-3.527a6.118,6.118,0,1,1,1.583-.21A6.1,6.1,0,0,1,364.442,302.395Zm50.3-3.532a6.1,6.1,0,1,1,4.61-2.1A6.1,6.1,0,0,1,414.738,298.862Zm50.3-3.53a6.1,6.1,0,1,1,4.61-2.1A6.109,6.109,0,0,1,465.034,295.333Zm50.3-3.525a6.1,6.1,0,1,1,4.607-2.1A6.1,6.1,0,0,1,515.335,291.807Zm50.3-3.532a6.1,6.1,0,1,1,4.608-2.1A6.1,6.1,0,0,1,565.631,288.275Zm-228.1-9.265a6.105,6.105,0,1,1,4.608-2.1A6.093,6.093,0,0,1,337.528,279.01Zm50.3-3.53a6.12,6.12,0,1,1,1.584-.21A6.1,6.1,0,0,1,387.825,275.48Zm50.3-3.529a6.1,6.1,0,1,1,4.609-2.1A6.1,6.1,0,0,1,438.122,271.951Zm50.3-3.529a6.1,6.1,0,1,1,4.608-2.1A6.1,6.1,0,0,1,488.42,268.422Zm50.3-3.531a6.1,6.1,0,1,1,4.607-2.1A6.1,6.1,0,0,1,538.719,264.891Zm50.3-3.529a6.1,6.1,0,1,1,4.609-2.1A6.1,6.1,0,0,1,589.015,261.361Zm-278.4-5.737a6.1,6.1,0,1,1,4.608-2.1A6.1,6.1,0,0,1,310.617,255.625Zm50.3-3.532a6.1,6.1,0,1,1,4.61-2.1A6.107,6.107,0,0,1,360.913,252.093Zm50.3-3.523a6.119,6.119,0,1,1,1.584-.21A6.1,6.1,0,0,1,411.209,248.57Zm50.3-3.533a6.1,6.1,0,1,1,4.608-2.1A6.1,6.1,0,0,1,461.507,245.037Zm50.3-3.531a6.1,6.1,0,1,1,4.608-2.1A6.1,6.1,0,0,1,511.8,241.506Zm50.3-3.529a6.1,6.1,0,1,1,4.608-2.1A6.107,6.107,0,0,1,562.1,237.977Zm50.3-3.53a6.1,6.1,0,1,1,4.609-2.1A6.1,6.1,0,0,1,612.4,234.447ZM334,228.709a6.094,6.094,0,1,1,4.608-2.1A6.11,6.11,0,0,1,334,228.709Zm50.294-3.528a6.1,6.1,0,1,1,4.609-2.1A6.107,6.107,0,0,1,384.295,225.181Zm50.3-3.526a6.12,6.12,0,1,1,1.584-.21A6.1,6.1,0,0,1,434.592,221.656Zm50.3-3.532a6.1,6.1,0,1,1,4.606-2.1A6.1,6.1,0,0,1,484.893,218.124Zm50.3-3.531a6.1,6.1,0,1,1,4.609-2.1A6.1,6.1,0,0,1,535.188,214.592Zm50.3-3.529a6.1,6.1,0,1,1,4.608-2.1A6.1,6.1,0,0,1,585.487,211.063Zm-278.4-5.736A6.1,6.1,0,0,1,301,199.588v-.728a6.1,6.1,0,1,1,6.088,6.467Zm50.3-3.53a6.1,6.1,0,1,1,4.61-2.1A6.105,6.105,0,0,1,357.383,201.8Zm50.3-3.527a6.1,6.1,0,1,1,4.608-2.1A6.091,6.091,0,0,1,407.68,198.271Zm50.3-3.528a6.118,6.118,0,1,1,1.583-.209A6.1,6.1,0,0,1,457.977,194.743Zm50.3-3.533a6.1,6.1,0,1,1,4.608-2.1A6.1,6.1,0,0,1,508.276,191.21Zm50.3-3.531a6.1,6.1,0,1,1,4.61-2.1A6.1,6.1,0,0,1,558.572,187.679Zm-228.1-9.263a6.1,6.1,0,1,1,4.609-2.1A6.1,6.1,0,0,1,330.471,178.415Zm50.3-3.529a6.1,6.1,0,1,1,4.609-2.1A6.1,6.1,0,0,1,380.768,174.886Zm50.3-3.531a6.1,6.1,0,1,1,4.608-2.1A6.094,6.094,0,0,1,431.064,171.355Zm50.3-3.526a6.121,6.121,0,1,1,1.581-.21A6.021,6.021,0,0,1,481.365,167.829Zm50.3-3.533a6.1,6.1,0,1,1,4.607-2.1A6.1,6.1,0,0,1,531.661,164.3Zm-228.1-9.266a6.142,6.142,0,0,1-2.559-.561V143.381a6.164,6.164,0,0,1,2.566-.562,6.106,6.106,0,1,1-.007,12.212Zm50.3-3.529a6.1,6.1,0,1,1,4.608-2.1A6.1,6.1,0,0,1,353.856,151.5Zm50.3-3.531a6.1,6.1,0,1,1,4.607-2.1A6.1,6.1,0,0,1,404.153,147.971Zm50.3-3.53a6.1,6.1,0,1,1,4.609-2.1A6.1,6.1,0,0,1,454.449,144.441Zm50.3-3.522a6.118,6.118,0,1,1,1.581-.21A6.043,6.043,0,0,1,504.745,140.919Zm-177.8-12.8a6.1,6.1,0,1,1,.424-.015C327.23,128.115,327.087,128.12,326.946,128.12Zm50.3-3.532a6.1,6.1,0,1,1,4.606-2.1A6.1,6.1,0,0,1,377.242,124.588Zm50.3-3.531a6.1,6.1,0,1,1,4.607-2.1A6.108,6.108,0,0,1,427.538,121.057Zm50.3-3.529a6.1,6.1,0,1,1,4.61-2.1A6.094,6.094,0,0,1,477.833,117.527ZM350.329,101.2a6.1,6.1,0,1,1,4.607-2.1A6.106,6.106,0,0,1,350.329,101.2Zm50.3-3.529a6.1,6.1,0,1,1,4.607-2.1A6.1,6.1,0,0,1,400.625,97.675Zm50.3-3.532a6.1,6.1,0,1,1,4.609-2.1A6.1,6.1,0,0,1,450.922,94.143Zm-77.21-19.854a6.105,6.105,0,1,1,4.608-2.1A6.1,6.1,0,0,1,373.712,74.289Zm50.3-3.529a6.1,6.1,0,1,1,4.608-2.1A6.1,6.1,0,0,1,424.01,70.761ZM397.1,47.375a6.1,6.1,0,1,1,4.608-2.1A6.1,6.1,0,0,1,397.1,47.375Z" transform="translate(-301 -35.164)" fill="#0864b1"/>
</svg>
