<svg xmlns="http://www.w3.org/2000/svg" width="8.394" height="8.313" viewBox="0 0 8.394 8.313">
  <g id="iconfinder_share_publish_social_media_send_network_3994404" transform="translate(0 0.924)">
    <path id="Path_37913" data-name="Path 37913" d="M6.927,3.618a.462.462,0,0,0-.462.462V6.466H.924V.924H3.309a.462.462,0,1,0,0-.924H.462A.462.462,0,0,0,0,.462V6.927a.462.462,0,0,0,.462.462H6.927a.462.462,0,0,0,.462-.462V4.08A.462.462,0,0,0,6.927,3.618Z" fill="#377fd1"/>
    <path id="Path_37914" data-name="Path 37914" d="M40.157,0H38.31a.462.462,0,1,0,0,.924h.732L35.136,4.83a.462.462,0,0,0,.653.653L39.7,1.577v.732a.462.462,0,0,0,.924,0V.462A.462.462,0,0,0,40.157,0Z" transform="translate(-32.23 -0.924)" fill="#377fd1"/>
  </g>
</svg>
