<svg xmlns="http://www.w3.org/2000/svg" xmlns:xlink="http://www.w3.org/1999/xlink" width="155" height="155" viewBox="0 0 155 155">
  <defs>
    <clipPath id="clip-path">
      <circle id="Ellipse_239" data-name="Ellipse 239" cx="77.5" cy="77.5" r="77.5"/>
    </clipPath>
    <clipPath id="clip-path-3">
      <path id="Path_37849" data-name="Path 37849" d="M73.425,108.021l43.1,11.9a18.767,18.767,0,0,1,10.969,10.2v15.141H-27V130.114a18.343,18.343,0,0,1,10.97-10.2l43.1-11.9V85h46.35Z" transform="translate(27 -85)"/>
    </clipPath>
    <clipPath id="clip-path-6">
      <rect id="Rectangle_1358" data-name="Rectangle 1358" width="47" height="8" transform="translate(0.47 -0.345)"/>
    </clipPath>
  </defs>
  <g id="iconfinder_male3_403019" transform="translate(27 -24)">
    <g id="Group_35782" data-name="Group 35782" transform="translate(-27 24)">
      <circle id="Ellipse_238" data-name="Ellipse 238" cx="77.5" cy="77.5" r="77.5" fill="#f5eee5"/>
      <g id="Group_35778" data-name="Group 35778">
        <g id="Group_35773" data-name="Group 35773" clip-path="url(#clip-path)">
          <path id="Path_37847" data-name="Path 37847" d="M73.425,108.021l43.1,11.9a18.767,18.767,0,0,1,10.969,10.2v15.141H-27V130.114a18.343,18.343,0,0,1,10.97-10.2l43.1-11.9V85h46.35Z" transform="translate(27 9.245)" fill="#e6c19c"/>
        </g>
        <g id="Group_35777" data-name="Group 35777" clip-path="url(#clip-path)">
          <g id="Group_35774" data-name="Group 35774" transform="translate(0 94.245)" clip-path="url(#clip-path-3)">
            <path id="Path_37848" data-name="Path 37848" d="M-27,82H127.5v64.89H-27Zm77.25,46.35c17,0,30.9-9.734,30.9-21.63s-13.9-21.63-30.9-21.63-30.9,9.734-30.9,21.63S33.255,128.35,50.25,128.35Z" transform="translate(27 -86.635)" fill="#e6a422"/>
          </g>
          <g id="Group_35775" data-name="Group 35775" transform="translate(0 94.245)" clip-path="url(#clip-path-3)">
            <path id="Path_37850" data-name="Path 37850" d="M35.153,143.91a21.757,21.757,0,0,1-8.343-1.7c-2.626-1.391-12.36-9.424-15.759-12.824-4.326-4.635-6.489-10.506-7.107-20.548S.7,62.952.7,54.764C.7,43.176,9.507,25.1,34.845,25.1h.309C60.646,25.254,69.3,43.176,69.3,54.764c0,8.188-2.627,44.033-3.244,54.075s-2.781,15.759-7.107,20.548c-3.244,3.554-12.978,11.433-15.759,12.824a19.153,19.153,0,0,1-8.034,1.7Z" transform="translate(42.097 -117.646)" fill="#d4b08c"/>
          </g>
          <g id="Group_35776" data-name="Group 35776" transform="translate(0 94.245)" clip-path="url(#clip-path-3)">
            <path id="Path_37852" data-name="Path 37852" d="M35.535,82C15.913,82,0,93.433,0,107.492s15.913,25.492,35.535,25.492S71.07,121.552,71.07,107.492,55.156,82,35.535,82Zm0,44.8c-16.222,0-29.355-9.27-29.355-20.857S19.313,85.09,35.535,85.09,64.89,94.36,64.89,105.947,51.757,126.8,35.535,126.8Z" transform="translate(41.715 -86.635)" fill="#d98c21"/>
          </g>
        </g>
      </g>
      <path id="Path_37854" data-name="Path 37854" d="M33.9,129.61a19.781,19.781,0,0,1-7.416-1.39c-2.472-1.081-11.124-7.107-14.059-9.734-3.862-3.554-5.871-7.88-6.489-15.45S3,68.583,3,62.4C3,53.6,10.88,40,33.9,40h0c23.021,0,30.9,13.6,30.9,22.4,0,6.18-2.317,33.217-2.935,40.788s-2.472,11.9-6.489,15.45a105.9,105.9,0,0,1-14.059,9.733A23.327,23.327,0,0,1,33.9,129.61Z" transform="translate(43.35 -15.28)" fill="#f2cea5"/>
      <path id="Path_37855" data-name="Path 37855" d="M37.521,86.536a14.036,14.036,0,0,1-12.514,3.708c-4.172-.927-7.261-3.09-8.806-6.644Z" transform="translate(50.544 8.482)" fill="#a3705f"/>
      <path id="Path_37856" data-name="Path 37856" d="M37.521,86.536a14.036,14.036,0,0,1-12.514,3.708c-4.172-.927-7.261-3.09-8.806-6.644Z" transform="translate(50.544 8.482)" fill="none" stroke="#a3705f" stroke-linecap="round" stroke-linejoin="round" stroke-width="1"/>
      <g id="Group_35781" data-name="Group 35781" transform="translate(52.53 63.345)">
        <g id="Group_35779" data-name="Group 35779" clip-path="url(#clip-path-6)">
          <ellipse id="Ellipse_241" data-name="Ellipse 241" cx="3" cy="3.5" rx="3" ry="3.5" transform="translate(35.47 2.655)" fill="#291f21"/>
        </g>
        <g id="Group_35780" data-name="Group 35780" clip-path="url(#clip-path-6)">
          <ellipse id="Ellipse_242" data-name="Ellipse 242" cx="3" cy="3.5" rx="3" ry="3.5" transform="translate(7.47 2.655)" fill="#291f21"/>
        </g>
      </g>
      <path id="Path_37857" data-name="Path 37857" d="M8,67.635S9.7,63,17.424,63c5.253,0,8.343,2.317,9.888,4.635" transform="translate(46.075 -2.745)" fill="none" stroke="#cc9872" stroke-width="2"/>
      <path id="Path_37858" data-name="Path 37858" d="M45.239,67.635S43.54,63,35.815,63C28.4,63,25,67.635,25,70.725v13.9" transform="translate(55.34 -2.745)" fill="none" stroke="#bb8660" stroke-width="2"/>
      <path id="Path_37859" data-name="Path 37859" d="M49.439,88.168s1.236-9.734,5.717-11.124c.618-2.781,2.317-10.815,2.317-15.3s-.464-8.806-2.936-12.514c-2.78-4.013-8.651-6.33-11.737-6.33-3.553,2.163-11.9,7.107-14.523,10.042-1.391,1.545.618,2.781.618,2.781a22.209,22.209,0,0,1,2.627-.927c3.862-1.082,12.36-1.854,14.986,2.008,3.244,4.635,3.244,18.231,3.244,20.239C49.748,78.9,49.439,88.168,49.439,88.168Z" transform="translate(56.857 -13.699)" fill="#452228"/>
      <path id="Path_37860" data-name="Path 37860" d="M1.317,81.786C5.8,83.331,7.034,92.91,7.034,92.91s-.309-9.27-.309-11.124c0-2.472.309-14.059,5.253-19.621,5.562-6.18,12.978-8.188,17.149-5.408,2.163,1.391,9.424,8.5,17.149,2.627C50.912,55.83,59.409,47.8,59.409,47.8s-4.48-13.75-24.874-12.2c-8.652.768-18.235-1.4-18.235-1.4s-.154,3.862,1.391,5.871C4.871,43.779.7,53.049-.536,60.156A19.177,19.177,0,0,0-1,64.327V66.49C-1,70.971.7,78.85,1.317,81.786Z" transform="translate(41.17 -18.441)" fill="#6b363e"/>
    </g>
  </g>
</svg>
