<svg id="protection" xmlns="http://www.w3.org/2000/svg" width="21.199" height="21.197" viewBox="0 0 21.199 21.197">
  <path id="Path_37986" data-name="Path 37986" d="M7.212,149.6a2.27,2.27,0,0,0-3.205,0l-.013.013q-.048.048-.091.1v-3.164A1.95,1.95,0,0,0,1.951,144.6H.621a.621.621,0,0,0-.621.621V153.2a.621.621,0,0,0,.182.439l3.809,3.809v1.738a.621.621,0,0,0,.621.621H9.269a.621.621,0,0,0,.621-.621v-5.274a3.921,3.921,0,0,0-1.156-2.791Zm1.435,8.965H5.233v-1.374a.621.621,0,0,0-.182-.439l-3.808-3.81v-7.1h.709a.709.709,0,0,1,.709.709v4.656a.621.621,0,0,0,.182.439L5.5,154.307h0a.621.621,0,1,0,.877-.877l-.021-.022-1.477-1.477a1.023,1.023,0,0,1,0-1.449l.009-.01a1.023,1.023,0,0,1,1.441.008L7.853,152a2.687,2.687,0,0,1,.792,1.913v4.653Z" transform="translate(0 -138.615)"/>
  <path id="Path_37987" data-name="Path 37987" d="M139.087,3.7V1.447a.621.621,0,0,0-.45-.6L137.448.512a13.231,13.231,0,0,0-7.275,0l-1.189.34a.621.621,0,0,0-.45.6V3.7a8.294,8.294,0,0,0,5.032,7.63.621.621,0,0,0,.245.05h0a.621.621,0,0,0,.245-.05A8.294,8.294,0,0,0,139.087,3.7Zm-5.278,6.38a7.053,7.053,0,0,1-4.035-6.38V1.916l.738-.211a11.988,11.988,0,0,1,6.593,0l.738.211V3.7a7.053,7.053,0,0,1-4.034,6.38Z" transform="translate(-123.212 -0.002)"/>
  <path id="Path_37988" data-name="Path 37988" d="M204.682,80.505l-1.891,1.889L201.9,81.5a.621.621,0,0,0-.877.877l1.33,1.33a.621.621,0,0,0,.877,0l2.328-2.328a.621.621,0,1,0-.877-.877Z" transform="translate(-192.528 -77)"/>
  <path id="Path_37989" data-name="Path 37989" d="M282.4,144.6h-1.33a1.95,1.95,0,0,0-1.952,1.952v3.165q-.044-.05-.091-.1l-.013-.013a2.27,2.27,0,0,0-3.205,0l-1.521,1.521a3.921,3.921,0,0,0-1.156,2.791v5.274a.621.621,0,0,0,.621.621h4.656a.621.621,0,0,0,.621-.621v-1.738l3.809-3.809a.621.621,0,0,0,.182-.439v-7.984a.621.621,0,0,0-.621-.621Zm-.621,8.346-3.809,3.809a.621.621,0,0,0-.182.439v1.374h-3.414v-4.653a2.687,2.687,0,0,1,.792-1.913l1.52-1.521a1.023,1.023,0,0,1,1.441-.008l.009.01a1.023,1.023,0,0,1,0,1.449l-1.477,1.477-.021.021a.621.621,0,0,0,.877.877h0l2.661-2.661a.621.621,0,0,0,.182-.439V146.55a.709.709,0,0,1,.709-.709h.709Z" transform="translate(-261.825 -138.615)"/>
</svg>
