<svg id="save-file" xmlns="http://www.w3.org/2000/svg" width="21.6" height="18" viewBox="0 0 21.6 18">
  <path id="Path_37946" data-name="Path 37946" d="M11.4,16.6a.674.674,0,0,1-.488-.209l-4.725-4.95A.675.675,0,0,1,6.675,10.3H9.15V5.125A1.127,1.127,0,0,1,10.275,4h2.25A1.127,1.127,0,0,1,13.65,5.125V10.3h2.475a.675.675,0,0,1,.488,1.141l-4.725,4.95a.674.674,0,0,1-.488.209Z" transform="translate(-0.6 -4)"/>
  <path id="Path_37947" data-name="Path 37947" d="M18.9,22.9H2.7A2.7,2.7,0,0,1,0,20.2V15.7A2.7,2.7,0,0,1,2.7,13H4.05a.9.9,0,1,1,0,1.8H2.7a.9.9,0,0,0-.9.9v4.5a.9.9,0,0,0,.9.9H18.9a.9.9,0,0,0,.9-.9V15.7a.9.9,0,0,0-.9-.9H17.55a.9.9,0,0,1,0-1.8H18.9a2.7,2.7,0,0,1,2.7,2.7v4.5a2.7,2.7,0,0,1-2.7,2.7Z" transform="translate(0 -4.9)"/>
</svg>
