<svg xmlns="http://www.w3.org/2000/svg" width="22.889" height="20.003" viewBox="0 0 22.889 20.003">
  <g id="share" transform="translate(0 0.007)">
    <path id="Path_37953" data-name="Path 37953" d="M195.4.646a.5.5,0,0,0-.86.357v2.69a6.885,6.885,0,0,0-4.295,1.425,7.643,7.643,0,0,0-2.652,4.442,7.826,7.826,0,0,0-.09,2.56h0v.023l.107.616a.5.5,0,0,0,.929.173l.321-.535a7.082,7.082,0,0,1,3.653-3.231,5.3,5.3,0,0,1,2.023-.3v2.786a.5.5,0,0,0,.862.355l5.327-5.354a.5.5,0,0,0,0-.713Zm.149,9.791V8.419a.5.5,0,0,0-.424-.5,6.167,6.167,0,0,0-2.941.3,7.7,7.7,0,0,0-3.738,2.977,7.183,7.183,0,0,1,.136-1.438A6.558,6.558,0,0,1,190.9,5.891l.031-.028A6.169,6.169,0,0,1,195.04,4.7h0a.5.5,0,0,0,.5-.5V2.217l4.11,4.09Zm0,0" transform="translate(-177.986 -0.5)"/>
    <path id="Path_37954" data-name="Path 37954" d="M21.04,70.869a.5.5,0,0,0-.5.5V73.5a1.514,1.514,0,0,1-1.512,1.512H2.521A1.514,1.514,0,0,1,1.008,73.5V61.493A1.514,1.514,0,0,1,2.52,59.981H6.007a.5.5,0,1,0,0-1.008H2.521A2.524,2.524,0,0,0,0,61.493V73.5a2.524,2.524,0,0,0,2.521,2.521h16.5A2.524,2.524,0,0,0,21.544,73.5V71.373a.5.5,0,0,0-.5-.5Zm0,0" transform="translate(0 -56.025)"/>
  </g>
</svg>
