<svg xmlns="http://www.w3.org/2000/svg" width="16.338" height="18.223" viewBox="0 0 16.338 18.223">
  <path id="file" d="M6.691,17.51a.712.712,0,0,1-.712.712H2.851A2.851,2.851,0,0,1,0,15.372V2.851A2.851,2.851,0,0,1,2.851,0H11.6a2.851,2.851,0,0,1,2.851,2.851v6.8a.712.712,0,1,1-1.424,0v-6.8A1.425,1.425,0,0,0,11.6,1.427H2.851A1.425,1.425,0,0,0,1.424,2.851V15.375A1.425,1.425,0,0,0,2.851,16.8H5.979a.712.712,0,0,1,.712.712Zm4.2-13.239H3.555a.712.712,0,1,0,0,1.424h7.332a.712.712,0,0,0,0-1.424ZM11.6,7.83a.712.712,0,0,0-.712-.712H3.555a.712.712,0,1,0,0,1.424h7.332A.712.712,0,0,0,11.6,7.83ZM3.558,9.965a.712.712,0,1,0,0,1.424H7.3a.712.712,0,0,0,0-1.424ZM16.21,15.179c-.025.036-.111.157-.164.224a10.014,10.014,0,0,1-1.573,1.621,4.881,4.881,0,0,1-3.045,1.2,4.881,4.881,0,0,1-3.045-1.2A10.014,10.014,0,0,1,6.81,15.4c-.053-.067-.139-.189-.164-.224a.712.712,0,0,1,0-.819c.025-.036.111-.157.164-.224a10.014,10.014,0,0,1,1.573-1.621,4.881,4.881,0,0,1,3.045-1.2,4.881,4.881,0,0,1,3.045,1.2,10.014,10.014,0,0,1,1.573,1.621c.053.067.139.189.164.224a.711.711,0,0,1,0,.819Zm-1.485-.409c-1.132-1.346-2.24-2.028-3.3-2.028s-2.165.682-3.3,2.028c1.132,1.346,2.24,2.028,3.3,2.028s2.162-.682,3.294-2.028Zm-3.262-1.352a1.352,1.352,0,1,0,.955.395,1.352,1.352,0,0,0-.955-.395Zm0,0"/>
</svg>
