<svg xmlns="http://www.w3.org/2000/svg" width="190" height="190" viewBox="0 0 190 190">
  <g id="Group_19" data-name="Group 19" transform="translate(-93 -6022)">
    <g id="Rectangle_1256" data-name="Rectangle 1256" transform="translate(93 6022)" fill="#fff" stroke="#0e77ff" stroke-width="1">
      <rect width="190" height="190" rx="9" stroke="none"/>
      <rect x="0.5" y="0.5" width="189" height="189" rx="8.5" fill="none"/>
    </g>
    <g id="React-icon" transform="translate(125.179 6056.355)">
      <path id="Path_46" data-name="Path 46" d="M300.557,133.608c0-8.271-10.358-16.11-26.239-20.971,3.665-16.186,2.036-29.064-5.141-33.187a11.158,11.158,0,0,0-5.7-1.425V83.7a5.893,5.893,0,0,1,2.9.662c3.461,1.985,4.963,9.544,3.792,19.266-.28,2.392-.738,4.912-1.3,7.482a123.335,123.335,0,0,0-16.161-2.774,124.149,124.149,0,0,0-10.587-12.725c8.3-7.711,16.084-11.936,21.378-11.936V78h0c-7,0-16.161,4.988-25.424,13.641-9.264-8.6-18.426-13.539-25.424-13.539v5.675c5.268,0,13.081,4.2,21.378,11.86a120.2,120.2,0,0,0-10.511,12.7,118.84,118.84,0,0,0-16.186,2.8c-.585-2.545-1.018-5.014-1.323-7.38-1.2-9.722.28-17.281,3.716-19.291a5.663,5.663,0,0,1,2.927-.662V78.127h0a11.348,11.348,0,0,0-5.752,1.425c-7.151,4.123-8.755,16.975-5.064,33.11-15.83,4.886-26.137,12.7-26.137,20.945,0,8.271,10.358,16.11,26.239,20.971-3.665,16.186-2.036,29.064,5.141,33.187a11.188,11.188,0,0,0,5.726,1.425c7,0,16.161-4.988,25.424-13.641,9.264,8.6,18.426,13.539,25.424,13.539a11.347,11.347,0,0,0,5.752-1.425c7.151-4.123,8.755-16.975,5.065-33.11C290.25,149.692,300.557,141.854,300.557,133.608Zm-33.136-16.975c-.942,3.283-2.112,6.668-3.436,10.053-1.043-2.036-2.138-4.072-3.334-6.108-1.171-2.036-2.418-4.021-3.665-5.955,3.614.534,7.1,1.2,10.435,2.01Zm-11.656,27.1c-1.985,3.436-4.021,6.693-6.133,9.722-3.792.331-7.635.509-11.5.509-3.843,0-7.686-.178-11.452-.484q-3.169-4.543-6.159-9.671-2.9-5-5.294-10.129c1.578-3.41,3.359-6.821,5.268-10.155,1.985-3.436,4.021-6.693,6.133-9.722,3.792-.331,7.635-.509,11.5-.509,3.843,0,7.686.178,11.452.484q3.169,4.543,6.159,9.671,2.9,5,5.294,10.129c-1.6,3.415-3.359,6.822-5.268,10.159Zm8.22-3.309c1.374,3.41,2.545,6.821,3.512,10.129-3.334.814-6.846,1.5-10.485,2.036,1.247-1.96,2.494-3.97,3.665-6.032,1.171-2.031,2.265-4.092,3.309-6.128Zm-25.806,27.155a104.931,104.931,0,0,1-7.075-8.144c2.291.1,4.632.178,7,.178,2.392,0,4.759-.051,7.075-.178a99.329,99.329,0,0,1-7,8.149Zm-18.935-14.99c-3.614-.534-7.1-1.2-10.434-2.011.942-3.283,2.112-6.668,3.436-10.053,1.043,2.036,2.138,4.072,3.334,6.108s2.42,4.026,3.665,5.961Zm18.807-52.961a104.918,104.918,0,0,1,7.075,8.144c-2.29-.1-4.632-.178-7-.178-2.392,0-4.759.051-7.075.178a99.323,99.323,0,0,1,7-8.14Zm-18.833,14.99c-1.247,1.96-2.494,3.97-3.665,6.032-1.171,2.036-2.265,4.072-3.309,6.108-1.374-3.41-2.545-6.821-3.512-10.129,3.336-.785,6.848-1.472,10.487-2.007Zm-23.032,31.863c-9.009-3.843-14.837-8.882-14.837-12.878s5.828-9.06,14.837-12.878c2.189-.942,4.581-1.781,7.05-2.57a122.24,122.24,0,0,0,5.726,15.5,120.5,120.5,0,0,0-5.65,15.423c-2.518-.785-4.912-1.651-7.125-2.592Zm13.692,36.368c-3.461-1.985-4.963-9.544-3.792-19.266.28-2.392.738-4.912,1.3-7.482a123.335,123.335,0,0,0,16.161,2.774A124.147,124.147,0,0,0,234.133,171.6c-8.3,7.711-16.084,11.936-21.378,11.936a6.074,6.074,0,0,1-2.876-.682Zm60.367-19.393c1.2,9.722-.28,17.28-3.716,19.291a5.664,5.664,0,0,1-2.927.662c-5.268,0-13.081-4.2-21.378-11.86a120.207,120.207,0,0,0,10.511-12.7,118.846,118.846,0,0,0,16.186-2.8,71.263,71.263,0,0,1,1.325,7.412Zm9.8-16.975c-2.189.942-4.581,1.782-7.05,2.57a122.237,122.237,0,0,0-5.726-15.5,120.508,120.508,0,0,0,5.65-15.423c2.52.789,4.912,1.654,7.151,2.6,9.009,3.843,14.837,8.882,14.837,12.878-.025,3.994-5.853,9.062-14.862,12.88Z" transform="translate(-175.7 -78)" fill="#0864b1"/>
      <path id="Path_47" data-name="Path 47" d="M320.8,78.4Z" transform="translate(-283.872 -78.298)" fill="#0864b1"/>
      <circle id="Ellipse_1" data-name="Ellipse 1" cx="11.631" cy="11.631" r="11.631" transform="translate(50.773 43.977)" fill="#0864b1"/>
      <path id="Path_48" data-name="Path 48" d="M520.5,78.1Z" transform="translate(-432.749 -78.075)" fill="#0864b1"/>
    </g>
  </g>
</svg>
