<svg xmlns="http://www.w3.org/2000/svg" width="190" height="190" viewBox="0 0 190 190">
  <g id="Group_24" data-name="Group 24" transform="translate(-1381 -6022)">
    <g id="Rectangle_1258" data-name="Rectangle 1258" transform="translate(1381 6022)" fill="#fff" stroke="#0e77ff" stroke-width="1">
      <rect width="190" height="190" rx="9" stroke="none"/>
      <rect x="0.5" y="0.5" width="189" height="189" rx="8.5" fill="none"/>
    </g>
    <g id="g10" transform="translate(1423.964 6066.786)">
      <g id="g12">
        <circle id="circle14" cx="50" cy="50" r="50" transform="translate(0.036 0.215)" fill="#0864b1"/>
        <path id="path16" d="M95.223,40.389C90.14,40.567,85.7,43.37,82.4,47.246a43.218,43.218,0,0,0-7.846,14.439c-3.136-2.571-5.555-5.9-10.586-7.349a12.937,12.937,0,0,0-11.731,2.141A10.518,10.518,0,0,0,48.648,61.7c-1.512,4.91,1.585,9.279,2.993,10.85l3.075,3.291a4.678,4.678,0,0,1,1.416,4.749,5.677,5.677,0,0,1-7.224,3.328c-1.451-.449-3.537-1.528-3.068-3.047a13.314,13.314,0,0,1,.879-1.626,7.537,7.537,0,0,0,.389-1.013c.594-1.94-.217-4.46-2.293-5.1-1.938-.592-3.917-.121-4.685,2.369-.874,2.836.483,7.973,7.744,10.213,8.507,2.615,15.7-2.02,16.724-8.06.644-3.783-1.068-6.6-4.2-10.213l-2.549-2.819a4.652,4.652,0,0,1-.478-6.2c1.35-1.706,3.27-2.433,6.42-1.58,4.594,1.244,6.643,4.434,10.058,7.006-1.41,4.626-2.334,9.27-3.166,13.439l-.512,3.1c-2.444,12.811-4.307,19.844-9.153,23.882a7.83,7.83,0,0,1-4.475,1.808,1.289,1.289,0,0,1-1.476-1.055c-.025-.774.629-1.129,1.063-1.476a2.683,2.683,0,0,0,1.56-2.813,4.245,4.245,0,0,0-4.562-4.052,5.285,5.285,0,0,0-4.906,5.366c.118,3.537,3.416,6.192,8.39,6.02,2.66-.087,8.6-1.169,14.446-8.124,6.808-7.974,8.714-17.115,10.147-23.8l1.6-8.83c.89.105,1.838.178,2.872.2,8.481.182,12.722-4.213,12.788-7.407.041-1.934-1.269-3.837-3.106-3.794A3.541,3.541,0,0,0,92,59.047c-.387,1.783,2.7,3.391.287,4.954-1.713,1.111-4.785,1.892-9.11,1.257l.788-4.348c1.6-8.244,3.585-18.384,11.1-18.628.547-.029,2.551.025,2.6,1.348.012.442-.1.556-.613,1.569a3.585,3.585,0,0,0-.7,2.234c.075,2.1,1.674,3.487,3.99,3.4,3.1-.1,3.988-3.116,3.938-4.667-.128-3.646-3.968-5.946-9.048-5.782Z" transform="translate(-23.297 -21.871)" fill="#fff"/>
      </g>
    </g>
  </g>
</svg>
