<svg xmlns="http://www.w3.org/2000/svg" width="190" height="190" viewBox="0 0 190 190">
  <g id="Group_23" data-name="Group 23" transform="translate(-1123 -6022)">
    <g id="Rectangle_1259" data-name="Rectangle 1259" transform="translate(1123 6022)" fill="#fff" stroke="#0e77ff" stroke-width="1">
      <rect width="190" height="190" rx="9" stroke="none"/>
      <rect x="0.5" y="0.5" width="189" height="189" rx="8.5" fill="none"/>
    </g>
    <path id="Path_37520" data-name="Path 37520" d="M1308.74,321.247V273.29c0-.181.041-.221.221-.221q47.957.007,95.915,0c.181,0,.221.041.221.221q-.007,47.957,0,95.914c0,.181-.04.221-.221.221q-47.958-.008-95.915,0c-.181,0-.221-.041-.221-.221Zm74.067,40.625a21.581,21.581,0,0,0,2.5-.153,16.953,16.953,0,0,0,5.746-1.648,11.24,11.24,0,0,0,6.1-7.293,14.668,14.668,0,0,0,.282-5.9,11.339,11.339,0,0,0-3.606-6.967,21.749,21.749,0,0,0-4.89-3.3c-1.942-1.011-3.976-1.818-5.978-2.7a19.316,19.316,0,0,1-3.314-1.74,4.145,4.145,0,0,1-1.911-3.281A3.777,3.777,0,0,1,1380,325.1a5.637,5.637,0,0,1,2.783-.378,5.321,5.321,0,0,1,3.4,1.512,9.393,9.393,0,0,1,1.619,2.173c.079.139.136.146.266.062q3.356-2.163,6.72-4.314c.15-.1.14-.162.06-.3-.307-.518-.63-1.025-.982-1.513a12.555,12.555,0,0,0-5.831-4.587,16.369,16.369,0,0,0-5.4-.955,16,16,0,0,0-6.233.978,11.364,11.364,0,0,0-6.452,5.8,12.97,12.97,0,0,0-.808,8.4,11.629,11.629,0,0,0,4.394,6.942,24.455,24.455,0,0,0,5.259,3.075c1.891.85,3.823,1.61,5.69,2.516a10.311,10.311,0,0,1,2.819,1.816,4.168,4.168,0,0,1,.918,4.6,4.5,4.5,0,0,1-2.616,2.349,9.813,9.813,0,0,1-9.2-1.423,12.922,12.922,0,0,1-2.823-3.323c-.088-.142-.144-.18-.308-.084q-3.5,2.044-7.006,4.071c-.128.074-.158.125-.082.269a16.1,16.1,0,0,0,7.248,7.1,20.425,20.425,0,0,0,9.375,1.981ZM1361.2,333.707h.005q0-8.069.005-16.138c0-.208-.044-.267-.261-.266q-4.252.012-8.5,0c-.243,0-.3.057-.3.3q.012,7.888.006,15.776V348.36a9.193,9.193,0,0,1-.3,2.4,3.635,3.635,0,0,1-2.771,2.833,7.814,7.814,0,0,1-1.623.184,4.974,4.974,0,0,1-4.07-1.763,14.922,14.922,0,0,1-1.77-2.658c-.1-.186-.172-.22-.364-.1-1.187.732-2.383,1.449-3.577,2.172-1.131.685-2.261,1.372-3.4,2.051-.141.085-.169.154-.086.3.1.172.181.357.276.534a13.748,13.748,0,0,0,5.728,5.837,14.8,14.8,0,0,0,5.716,1.629,18.311,18.311,0,0,0,6.84-.6,10.812,10.812,0,0,0,7.07-5.927,15.094,15.094,0,0,0,1.367-6.42C1361.22,343.791,1361.2,338.749,1361.2,333.707Z" transform="translate(-141.27 5796.431)" fill="#0864b1"/>
  </g>
</svg>
