<svg xmlns="http://www.w3.org/2000/svg" width="190" height="190" viewBox="0 0 190 190">
  <g id="Group_22" data-name="Group 22" transform="translate(-866 -6022)">
    <g id="Rectangle_1253" data-name="Rectangle 1253" transform="translate(866 6022)" fill="#fff" stroke="#0e77ff" stroke-width="1">
      <rect width="190" height="190" rx="9" stroke="none"/>
      <rect x="0.5" y="0.5" width="189" height="189" rx="8.5" fill="none"/>
    </g>
    <g id="redux-logo" transform="translate(910.964 6066.786)">
      <path id="Path_52" data-name="Path 52" d="M83.831,71.226a7.5,7.5,0,0,0-.8-14.95h-.267a7.468,7.468,0,0,0-7.208,7.742,7.665,7.665,0,0,0,2.136,4.939C73.152,77.9,66.211,84.441,55.8,89.913a36.1,36.1,0,0,1-21.758,4.138c-6.007-.8-10.679-3.471-13.615-7.875a19.607,19.607,0,0,1-1.068-20.69,31.42,31.42,0,0,1,9.077-10.679C27.9,53.072,27.1,50.136,26.7,48,7.346,62.016,9.348,80.97,15.221,89.913c4.4,6.674,13.348,10.812,23.226,10.812a32.816,32.816,0,0,0,8.009-.934C63.542,96.454,76.489,86.309,83.831,71.226Z" transform="translate(-11.15 -1.682)" fill="#0864b1"/>
      <path id="Path_53" data-name="Path 53" d="M97.833,58.625C87.688,46.745,72.738,40.2,55.652,40.2H53.517a7.335,7.335,0,0,0-6.541-4h-.267a7.477,7.477,0,1,0,.267,14.951h.267a7.519,7.519,0,0,0,6.541-4.538h2.4a50.876,50.876,0,0,1,28.432,8.676A35.757,35.757,0,0,1,98.767,72.374c2.269,5.606,2.136,11.079-.267,15.751C94.763,95.2,88.489,99.07,80.213,99.07a34.14,34.14,0,0,1-13.081-2.8c-1.468,1.335-4.138,3.471-6.007,4.805a41.2,41.2,0,0,0,17.219,4.138c12.814,0,22.292-7.075,25.9-14.149,3.871-7.742,3.6-21.09-6.407-32.436Z" transform="translate(-1.659 -5.633)" fill="#0864b1"/>
      <path id="Path_54" data-name="Path 54" d="M34.259,85.113a7.5,7.5,0,0,0,7.475,7.208H42a7.477,7.477,0,1,0-.267-14.951h-.267a2.272,2.272,0,0,0-.934.133,48.909,48.909,0,0,1-6.941-29.633,35.808,35.808,0,0,1,7.875-20.69c3.871-4.939,11.346-7.342,16.418-7.475C72.035,19.44,78.041,37.06,78.442,44.134c1.735.4,4.672,1.335,6.674,2C83.514,24.513,70.166,13.3,57.352,13.3c-12.013,0-23.092,8.676-27.5,21.491-6.14,17.086-2.136,33.5,5.339,46.452A6,6,0,0,0,34.259,85.113Z" transform="translate(-5.895 -13.3)" fill="#0864b1"/>
    </g>
  </g>
</svg>
