<svg xmlns="http://www.w3.org/2000/svg" xmlns:xlink="http://www.w3.org/1999/xlink" width="15.304" height="15.304" viewBox="0 0 15.304 15.304">
  <defs>
    <linearGradient id="linear-gradient" x1="0.5" y1="1" x2="0.5" gradientUnits="objectBoundingBox">
      <stop offset="0" stop-color="#fd5900"/>
      <stop offset="1" stop-color="#ffde00"/>
    </linearGradient>
  </defs>
  <g id="cpu" transform="translate(0.002 0.002)">
    <g id="Group_35844" data-name="Group 35844">
      <g id="Group_35843" data-name="Group 35843">
        <path id="Path_37918" data-name="Path 37918" d="M7.647,8.1A.448.448,0,1,0,7.2,7.647a.448.448,0,0,0,.447.448Zm-2.688,0h.493a2.228,2.228,0,0,0,.327.786l-.35.35a.448.448,0,0,0,.634.634l.35-.35a2.227,2.227,0,0,0,.786.327v.493a.45.45,0,1,0,.9,0V9.842a2.228,2.228,0,0,0,.786-.327l.35.35a.448.448,0,0,0,.634-.634l-.35-.35A2.227,2.227,0,0,0,9.846,8.1h.493a.45.45,0,1,0,0-.9h-.5a2.228,2.228,0,0,0-.327-.786l.35-.35a.448.448,0,1,0-.634-.634l-.35.35A2.227,2.227,0,0,0,8.1,5.448V4.959a.45.45,0,1,0-.9,0v.493a2.228,2.228,0,0,0-.786.327l-.35-.35a.448.448,0,0,0-.634.634l.35.35a2.227,2.227,0,0,0-.327.786H4.959a.45.45,0,1,0,0,.9ZM7.647,6.3a1.346,1.346,0,1,1-.953.394A1.344,1.344,0,0,1,7.647,6.3Zm7.2-.9a.448.448,0,0,0,.448-.448v-.9a.45.45,0,1,0-.9,0V4.51h-1.82V3.166a.448.448,0,0,0-.448-.448H10.783V.9h.448a.45.45,0,0,0,0-.9h-.9a.448.448,0,0,0-.448.448v2.27h-.9V.448a.45.45,0,0,0-.9,0v2.27H7.2V.448a.45.45,0,1,0-.9,0v2.27H5.4V.448A.448.448,0,0,0,4.959,0h-.9a.45.45,0,1,0,0,.9H4.51V2.718H3.166a.448.448,0,0,0-.448.448V4.51H.9V4.062a.45.45,0,1,0-.9,0v.9a.448.448,0,0,0,.448.448h2.27v.9H.448a.45.45,0,1,0,0,.9h2.27v.9H.448a.45.45,0,0,0,0,.9h2.27v.9H.448A.448.448,0,0,0,0,10.335v.9a.45.45,0,0,0,.9,0v-.448H2.718v1.344a.448.448,0,0,0,.448.448H4.51V14.4H4.062a.45.45,0,0,0,0,.9h.9a.448.448,0,0,0,.448-.448v-2.27h.9v2.27a.45.45,0,0,0,.9,0v-2.27h.9v2.27a.45.45,0,0,0,.9,0v-2.27h.9v2.27a.448.448,0,0,0,.448.448h.9a.45.45,0,0,0,0-.9H10.81V12.575h1.344a.448.448,0,0,0,.448-.448V10.783h1.8v.448a.45.45,0,0,0,.9,0v-.9a.448.448,0,0,0-.448-.448h-2.27v-.9h2.27a.45.45,0,1,0,0-.9h-2.27V7.2h2.27a.45.45,0,1,0,0-.9h-2.27V5.4Zm-3.166,6.273H3.614V3.614h8.065Z" fill="url(#linear-gradient)"/>
      </g>
    </g>
  </g>
</svg>
