<svg xmlns="http://www.w3.org/2000/svg" width="190" height="190" viewBox="0 0 190 190">
  <g id="Group_20" data-name="Group 20" transform="translate(-350 -6022)">
    <g id="Rectangle_1255" data-name="Rectangle 1255" transform="translate(350 6022)" fill="#fff" stroke="#0e77ff" stroke-width="1">
      <rect width="190" height="190" rx="9" stroke="none"/>
      <rect x="0.5" y="0.5" width="189" height="189" rx="8.5" fill="none"/>
    </g>
    <g id="Amazon_Web_Services_Logo" transform="translate(387.107 6087.821)">
      <path id="Path_65" data-name="Path 65" d="M42.751,26.977a11.99,11.99,0,0,0,.436,3.527,21.211,21.211,0,0,0,1.268,2.853,1.724,1.724,0,0,1,.277.911,1.569,1.569,0,0,1-.753,1.189l-2.5,1.664a1.9,1.9,0,0,1-1.03.357,1.823,1.823,0,0,1-1.189-.555,12.259,12.259,0,0,1-1.427-1.862c-.4-.674-.793-1.427-1.228-2.338a14.639,14.639,0,0,1-11.65,5.469,10.858,10.858,0,0,1-7.925-2.853A10.18,10.18,0,0,1,14.1,27.73a10.2,10.2,0,0,1,3.606-8.163c2.417-2.061,5.627-3.091,9.709-3.091a31.375,31.375,0,0,1,4.2.317c1.466.2,2.972.515,4.557.872V14.771c0-3.012-.634-5.112-1.862-6.34C33.042,7.2,30.9,6.608,27.851,6.608a18.033,18.033,0,0,0-4.281.515A31.575,31.575,0,0,0,19.291,8.47a11.371,11.371,0,0,1-1.387.515,2.431,2.431,0,0,1-.634.119c-.555,0-.832-.4-.832-1.228V5.935a2.507,2.507,0,0,1,.277-1.387,2.967,2.967,0,0,1,1.11-.832,22.814,22.814,0,0,1,4.993-1.783A24.025,24.025,0,0,1,29,1.179c4.716,0,8.163,1.07,10.382,3.21,2.18,2.14,3.289,5.389,3.289,9.748v12.84ZM26.662,33a12.843,12.843,0,0,0,4.082-.713,8.83,8.83,0,0,0,3.765-2.536,6.29,6.29,0,0,0,1.347-2.536,14.226,14.226,0,0,0,.4-3.448V22.1a33.094,33.094,0,0,0-3.646-.674,29.86,29.86,0,0,0-3.725-.238c-2.655,0-4.6.515-5.9,1.585a5.523,5.523,0,0,0-1.942,4.557,5.531,5.531,0,0,0,1.466,4.2A5.5,5.5,0,0,0,26.662,33Zm31.821,4.28a2.212,2.212,0,0,1-1.506-.4,3.23,3.23,0,0,1-.832-1.545L46.832,4.706a6.941,6.941,0,0,1-.357-1.585.869.869,0,0,1,.951-.991H51.31a2.2,2.2,0,0,1,1.545.4,3.242,3.242,0,0,1,.793,1.545l6.657,26.233L66.487,4.072a2.78,2.78,0,0,1,.753-1.545,2.726,2.726,0,0,1,1.585-.4H72a2.385,2.385,0,0,1,1.585.4,2.67,2.67,0,0,1,.753,1.545L80.6,30.622,87.45,4.072a3.4,3.4,0,0,1,.793-1.545,2.585,2.585,0,0,1,1.545-.4h3.685a.881.881,0,0,1,.991.991,3.954,3.954,0,0,1-.079.634,5.641,5.641,0,0,1-.277.991l-9.55,30.632a3.039,3.039,0,0,1-.832,1.545,2.535,2.535,0,0,1-1.506.4H78.811a2.385,2.385,0,0,1-1.585-.4,2.809,2.809,0,0,1-.753-1.585L70.331,9.778l-6.1,25.52a3.093,3.093,0,0,1-.753,1.585,2.456,2.456,0,0,1-1.585.4ZM109.4,38.35a26.223,26.223,0,0,1-6.1-.713,18.027,18.027,0,0,1-4.557-1.585,2.855,2.855,0,0,1-1.228-1.11,2.8,2.8,0,0,1-.238-1.11V31.811c0-.832.317-1.228.911-1.228a2.244,2.244,0,0,1,.713.119c.238.079.594.238.991.4a21.554,21.554,0,0,0,4.359,1.387,23.8,23.8,0,0,0,4.716.476,10.692,10.692,0,0,0,5.786-1.308,4.267,4.267,0,0,0,2.061-3.765,3.859,3.859,0,0,0-1.07-2.774,9.943,9.943,0,0,0-4-2.061L106,21.27a12.087,12.087,0,0,1-6.34-4.042,9.441,9.441,0,0,1-1.981-5.746,8.819,8.819,0,0,1,1.07-4.4A10.189,10.189,0,0,1,101.6,3.834a12.577,12.577,0,0,1,4.121-2.061,17.271,17.271,0,0,1,4.993-.674,19.893,19.893,0,0,1,2.655.159c.911.119,1.744.277,2.576.436.793.2,1.545.4,2.259.634a8.648,8.648,0,0,1,1.664.713,3.427,3.427,0,0,1,1.189.991,2.136,2.136,0,0,1,.357,1.308V7.2c0,.832-.317,1.268-.911,1.268A4.122,4.122,0,0,1,118.994,8a18.129,18.129,0,0,0-7.608-1.545,10.228,10.228,0,0,0-5.27,1.11,3.826,3.826,0,0,0-1.863,3.527,3.742,3.742,0,0,0,1.189,2.814,11.837,11.837,0,0,0,4.359,2.179l5.627,1.783a12.052,12.052,0,0,1,6.142,3.8,8.967,8.967,0,0,1,1.823,5.548,10.187,10.187,0,0,1-1.03,4.6A10.657,10.657,0,0,1,119.47,35.3a12.774,12.774,0,0,1-4.4,2.219A18.844,18.844,0,0,1,109.4,38.35Z" transform="translate(-9.174 -1.1)" fill="#0864b1"/>
      <g id="Group_27" data-name="Group 27" transform="translate(0 44.419)">
        <path id="Path_66" data-name="Path 66" d="M109.388,128.874c-13.038,9.626-31.98,14.742-48.266,14.742A87.319,87.319,0,0,1,2.2,121.147c-1.228-1.11-.119-2.615,1.347-1.744a118.837,118.837,0,0,0,58.965,15.653,117.668,117.668,0,0,0,44.977-9.194C109.665,124.872,111.528,127.289,109.388,128.874Z" transform="translate(-1.668 -116.785)" fill="#0864b1" fill-rule="evenodd"/>
        <path id="Path_67" data-name="Path 67" d="M262.318,119.1c-1.664-2.14-11.016-1.03-15.257-.515-1.268.159-1.466-.951-.317-1.783,7.45-5.231,19.7-3.725,21.121-1.981,1.427,1.783-.4,14.028-7.371,19.893-1.07.911-2.1.436-1.625-.753C260.456,130.037,263.983,121.2,262.318,119.1Z" transform="translate(-149.17 -113.192)" fill="#0864b1" fill-rule="evenodd"/>
      </g>
    </g>
  </g>
</svg>
