<svg xmlns="http://www.w3.org/2000/svg" width="19.295" height="20.399" viewBox="0 0 19.295 20.399">
  <g id="bar-chart" transform="translate(0.177 0.2)">
    <g id="Group_35849" data-name="Group 35849" transform="translate(0 5.729)">
      <g id="Group_35848" data-name="Group 35848">
        <path id="Path_37943" data-name="Path 37943" d="M32.148,160.144h-.857V147.7a1.051,1.051,0,0,0-1.05-1.05H28.326a1.051,1.051,0,0,0-1.05,1.05v12.44H25.1v-6.8a1.051,1.051,0,0,0-1.05-1.05H22.135a1.051,1.051,0,0,0-1.05,1.05v6.8H18.91v-3.52a1.051,1.051,0,0,0-1.05-1.05H15.945a1.051,1.051,0,0,0-1.05,1.05v3.524h-.9a.391.391,0,0,0,0,.781H32.148a.391.391,0,0,0,0-.781Zm-14.019,0H15.676V156.62a.269.269,0,0,1,.269-.269H17.86a.269.269,0,0,1,.269.269Zm6.191,0H21.866v-6.8a.269.269,0,0,1,.269-.269H24.05a.269.269,0,0,1,.269.269Zm6.191,0H28.057V147.7a.269.269,0,0,1,.269-.269h1.915a.269.269,0,0,1,.269.269v12.44Z" transform="translate(-13.601 -146.654)" stroke="#000" stroke-width="0.4"/>
      </g>
    </g>
    <g id="Group_35851" data-name="Group 35851" transform="translate(3.349)">
      <g id="Group_35850" data-name="Group 35850">
        <path id="Path_37944" data-name="Path 37944" d="M113.686.411a.389.389,0,0,0-.41-.41h-2.382a.391.391,0,0,0,0,.781h1.459l-3.862,3.862-1.456-1.456a.391.391,0,0,0-.552,0L99.461,10.21a.391.391,0,0,0,.552.552l6.746-6.746,1.456,1.456a.391.391,0,0,0,.552,0L112.9,1.334v1.32a.391.391,0,1,0,.781,0V.43A.12.12,0,0,0,113.686.411Z" transform="translate(-99.346)" stroke="#000" stroke-width="0.4"/>
      </g>
    </g>
    <g id="Group_35853" data-name="Group 35853" transform="translate(2.033 11.457)">
      <g id="Group_35852" data-name="Group 35852">
        <circle id="Ellipse_272" data-name="Ellipse 272" cx="0.391" cy="0.391" r="0.391" transform="translate(0 0)" stroke="#000" stroke-width="0.4"/>
      </g>
    </g>
  </g>
</svg>
