<svg xmlns="http://www.w3.org/2000/svg" width="18.826" height="21" viewBox="0 0 18.826 21">
  <path id="file" d="M7.711,20.18a.82.82,0,0,1-.82.82H3.281A3.285,3.285,0,0,1,0,17.719V3.281A3.285,3.285,0,0,1,3.281,0H13.367a3.285,3.285,0,0,1,3.281,3.281v7.834a.821.821,0,0,1-1.641,0V3.281A1.643,1.643,0,0,0,13.366,1.64H3.281a1.643,1.643,0,0,0-1.64,1.641V17.719A1.643,1.643,0,0,0,3.282,19.36H6.891a.82.82,0,0,1,.82.82ZM12.546,4.922H4.1a.82.82,0,1,0,0,1.641h8.449a.82.82,0,0,0,0-1.641Zm.82,4.1a.82.82,0,0,0-.82-.82H4.1a.821.821,0,0,0,0,1.641h8.449a.82.82,0,0,0,.818-.82ZM4.1,11.484a.82.82,0,1,0,0,1.641H8.408a.821.821,0,0,0,0-1.641Zm14.58,6.009c-.029.041-.128.181-.189.258a11.544,11.544,0,0,1-1.813,1.869A5.626,5.626,0,0,1,13.166,21a5.626,5.626,0,0,1-3.509-1.38,11.54,11.54,0,0,1-1.813-1.869c-.062-.077-.16-.217-.189-.258a.82.82,0,0,1,0-.943c.029-.041.128-.181.189-.258a11.541,11.541,0,0,1,1.813-1.868,5.626,5.626,0,0,1,3.509-1.38,5.626,5.626,0,0,1,3.509,1.38,11.54,11.54,0,0,1,1.813,1.869c.062.077.16.217.189.258a.82.82,0,0,1,0,.942Zm-1.711-.472c-1.3-1.552-2.581-2.338-3.8-2.338s-2.5.786-3.8,2.338c1.3,1.552,2.581,2.338,3.8,2.338s2.493-.786,3.8-2.337ZM13.21,15.462a1.561,1.561,0,1,0,1.1.456,1.559,1.559,0,0,0-1.1-.456Zm0,0" fill="#00a9c4"/>
</svg>
