<svg xmlns="http://www.w3.org/2000/svg" width="12.625" height="12.64" viewBox="0 0 12.625 12.64">
  <g id="search_2_" data-name="search (2)" transform="translate(-1.79 -1.753)">
    <path id="Path_37955" data-name="Path 37955" d="M6.411,10.823a4.411,4.411,0,1,1,4.261-3.269,4.411,4.411,0,0,1-4.261,3.269Zm0-8.471A4.066,4.066,0,1,0,10.4,5.627,4.066,4.066,0,0,0,6.411,2.352Z" stroke="#000" stroke-width="0.3"/>
    <path id="Path_37956" data-name="Path 37956" d="M33.734,10.371a.173.173,0,0,1-.094-.028,3.021,3.021,0,0,0-.449-.238.175.175,0,1,1,.137-.322,3.35,3.35,0,0,1,.5.266.175.175,0,0,1-.1.322Z" transform="translate(-25.646 -6.409)" stroke="#000" stroke-width="0.3"/>
    <path id="Path_37957" data-name="Path 37957" d="M11.686,15.056A3.289,3.289,0,0,1,11.4,8.49a.172.172,0,0,1,.189.16.175.175,0,0,1-.16.189,2.939,2.939,0,1,0,3.192,3.05.175.175,0,0,1,.35.014,3.289,3.289,0,0,1-3.285,3.153Z" transform="translate(-5.276 -5.354)" stroke="#000" stroke-width="0.3"/>
    <path id="Path_37958" data-name="Path 37958" d="M41.311,16.887a.175.175,0,0,1-.158-.1,2.839,2.839,0,0,0-.25-.431.175.175,0,0,1,.285-.2,3.2,3.2,0,0,1,.281.485.175.175,0,0,1-.157.249Z" transform="translate(-32.075 -11.617)" stroke="#000" stroke-width="0.3"/>
    <path id="Path_37959" data-name="Path 37959" d="M42.84,44.4a1.544,1.544,0,0,1-1.1-.453c-.024-.025-.048-.051-.071-.077l-3.088-3.533a.175.175,0,0,1,.264-.23l3.087,3.532c.017.02.036.041.056.061a1.2,1.2,0,0,0,1.639-1.756L40.1,38.853a.175.175,0,1,1,.23-.263l3.532,3.087A1.551,1.551,0,0,1,42.84,44.4Z" transform="translate(-30.155 -30.157)" stroke="#000" stroke-width="0.3"/>
    <path id="Path_37960" data-name="Path 37960" d="M54.275,56.338a.175.175,0,0,1-.124-.3l1.888-1.888a.175.175,0,1,1,.247.247L54.4,56.287a.175.175,0,0,1-.124.051Z" transform="translate(-42.992 -42.991)" stroke="#000" stroke-width="0.3"/>
  </g>
</svg>
